<?xml version="1.0" encoding="UTF-8"?>
<!-- Generator: visioncortex VTracer 0.6.4 -->
<svg version="1.1" xmlns="http://www.w3.org/2000/svg" width="582" height="594">
<path d="M0 0 C1.27447998 -0.01393799 2.54895996 -0.02787598 3.86206055 -0.04223633 C15.11423514 0.01559809 24.46231086 1.95357476 33.1875 9.375 C42.44442104 19.31911605 43.73972143 30.42634477 43.32373047 43.56494141 C39.37676658 124.97991333 11.45124306 193.31923405 -40.34765625 255.4140625 C-46.47631335 262.77622111 -52.48742024 270.21568596 -58.37915039 277.76782227 C-62.06836058 282.47579426 -65.86515589 287.08731965 -69.6875 291.6875 C-75.0258524 298.11793763 -80.15203714 304.68001513 -85.19433594 311.34423828 C-89.11180765 316.50556124 -93.18426085 321.48792763 -97.3671875 326.4375 C-99.99803657 329.59788099 -102.53696697 332.81799297 -105.0625 336.0625 C-110.42197197 342.93894895 -115.95141688 349.66758922 -121.515625 356.37890625 C-123.50881216 358.78496789 -125.48276837 361.20250392 -127.421875 363.65234375 C-134.48672439 372.53212859 -142.17473217 381.11092517 -153.8125 383.375 C-162.06563373 384.05716959 -169.7857617 384.11980755 -176.8125 379.375 C-184.93563093 372.45976112 -192.05049967 364.41231244 -198.640625 356.05078125 C-201.08058073 353.04472068 -203.67391513 350.2051608 -206.3125 347.375 C-210.61030541 342.75660717 -214.64024777 337.98275277 -218.59765625 333.06640625 C-222.18810806 328.70340573 -225.99309741 324.53751677 -229.8125 320.375 C-233.94387794 323.5994901 -237.2890597 326.99641525 -240.67578125 330.984375 C-243.87187947 334.56026551 -247.29487054 337.90009404 -250.72509766 341.25024414 C-253.04911417 343.53563953 -254.99651352 345.65102028 -256.8125 348.375 C-257.4725 348.375 -258.1325 348.375 -258.8125 348.375 C-259.03679687 348.92671875 -259.26109375 349.4784375 -259.4921875 350.046875 C-261.21635183 353.08711744 -263.43765822 355.18925673 -265.9375 357.625 C-266.84757812 358.51703125 -267.75765625 359.4090625 -268.6953125 360.328125 C-269.74332031 361.34132813 -269.74332031 361.34132813 -270.8125 362.375 C-269.3308074 366.19550783 -267.61659242 369.78606916 -265.71484375 373.41015625 C-262.61348118 380.16333968 -262.82194797 388.79684926 -264.75 395.875 C-268.98913201 406.78683979 -278.58558242 415.58482521 -286.49658203 423.96630859 C-288.1660873 425.75351553 -289.77683703 427.58639037 -291.375 429.4375 C-294.29048029 432.80919237 -297.2932992 436.09638808 -300.3125 439.375 C-303.95420497 443.33086722 -307.54749563 447.32061697 -311.0703125 451.3828125 C-313.12750399 453.73520635 -315.21846915 456.05534966 -317.3125 458.375 C-319.98298344 461.33369751 -322.63548058 464.30426472 -325.25 467.3125 C-328.06072525 470.54059512 -330.928299 473.71238443 -333.8125 476.875 C-340.92812673 484.46183844 -340.92812673 484.46183844 -347.37890625 492.59765625 C-347.85199219 493.18417969 -348.32507813 493.77070313 -348.8125 494.375 C-349.4725 494.375 -350.1325 494.375 -350.8125 494.375 C-351.07281006 494.95822021 -351.33312012 495.54144043 -351.60131836 496.14233398 C-352.89355532 498.52441563 -354.30757654 500.15538979 -356.19140625 502.09765625 C-356.86099365 502.79568359 -357.53058105 503.49371094 -358.22045898 504.21289062 C-359.28695679 505.31407227 -359.28695679 505.31407227 -360.375 506.4375 C-365.79556966 512.10295498 -370.92454038 517.81761179 -375.80078125 523.95703125 C-378.56488847 527.27932711 -381.61257733 530.25748925 -384.703125 533.2734375 C-387.23155211 535.79250007 -389.55078651 538.44614147 -391.875 541.15234375 C-394.2657275 543.89493235 -396.72336986 546.57359764 -399.1875 549.25 C-402.56341046 552.91854663 -405.92315003 556.59922825 -409.25 560.3125 C-409.97574219 561.11429688 -410.70148438 561.91609375 -411.44921875 562.7421875 C-413.18008955 564.6704634 -414.88605571 566.61194075 -416.58203125 568.5703125 C-428.6097663 582.27494339 -443.45195543 592.82507166 -462.14990234 594.59643555 C-483.17130897 595.61894537 -502.10953853 590.92845549 -518.34765625 576.8125 C-529.31729071 565.96455721 -535.10952111 552.38258431 -537.8125 537.375 C-538.039375 536.116875 -538.26625 534.85875 -538.5 533.5625 C-540.234564 515.57582552 -538.16324546 497.38635216 -526.53027344 482.76318359 C-523.14722845 478.78123205 -519.49856081 475.07418625 -515.8125 471.375 C-514.68429498 470.22194177 -513.55669598 469.06829027 -512.4296875 467.9140625 C-508.11715436 463.53111561 -503.81669559 459.20907368 -499.140625 455.2109375 C-493.57955666 450.39373166 -488.47612649 445.108789 -483.3125 439.875 C-472.27243021 428.68491955 -472.27243021 428.68491955 -467.9375 425 C-461.70727793 419.67715386 -456.06952141 413.6976018 -450.3125 407.875 C-436.97290588 394.38344956 -436.97290588 394.38344956 -430.77539062 389.11523438 C-426.4179274 385.25205056 -422.39905607 381.02018672 -418.3125 376.875 C-412.9684249 371.45425237 -407.63184589 366.14147975 -401.84960938 361.18945312 C-397.64942794 357.44835193 -393.75821106 353.38049456 -389.8125 349.375 C-384.56977547 344.05284025 -379.31845783 338.85841343 -373.64404297 333.99707031 C-371.28477764 331.90763298 -369.11931643 329.66793734 -366.9440918 327.38989258 C-359.83446168 319.95946073 -352.5370006 313.41816815 -341.8125 312.375 C-327.83275441 312.06952998 -319.72703457 317.0087172 -309.8671875 326.36328125 C-309.18914062 327.02714844 -308.51109375 327.69101562 -307.8125 328.375 C-304.06751917 324.7185369 -300.58449406 320.9178616 -297.1875 316.9375 C-296.66607422 316.32841797 -296.14464844 315.71933594 -295.60742188 315.09179688 C-291.60018855 310.3771197 -287.75893147 305.5499264 -283.98266602 300.64916992 C-281.55920532 297.52500246 -279.07113945 294.49072285 -276.45703125 291.5234375 C-275.90144531 290.89179688 -275.34585937 290.26015625 -274.7734375 289.609375 C-273.69755935 288.39582524 -272.61324676 287.18968623 -271.51953125 285.9921875 C-268.24009853 282.30817415 -268.24009853 282.30817415 -267.8125 277.375 C-269.19337533 275.6848927 -269.19337533 275.6848927 -271.14453125 274.23828125 C-271.85488525 273.66585693 -272.56523926 273.09343262 -273.29711914 272.50366211 C-274.06531982 271.90432861 -274.83352051 271.30499512 -275.625 270.6875 C-276.40673584 270.06174072 -277.18847168 269.43598145 -277.99389648 268.79125977 C-279.55666816 267.5407521 -281.12310188 266.29480567 -282.69335938 265.05371094 C-285.2800726 263.00460493 -287.82971085 260.91275393 -290.375 258.8125 C-293.46881093 256.27991392 -296.57287988 253.76081399 -299.6875 251.25390625 C-329.53841533 227.1957446 -329.53841533 227.1957446 -331.11450195 216.28417969 C-331.88791136 203.47916016 -330.49075344 194.41028843 -322.00390625 184.4453125 C-321.28584808 183.60018852 -321.28584808 183.60018852 -320.55328369 182.73799133 C-314.74065466 175.99969513 -308.41060241 169.79057894 -302.0625 163.5625 C-299.71008354 161.24697036 -297.36110304 158.9280262 -295.015625 156.60546875 C-294.45950531 156.05525558 -293.90338562 155.50504242 -293.33041382 154.93815613 C-289.83590954 151.45828634 -286.54314228 147.86630229 -283.34765625 144.1081543 C-280.66723821 141.08202712 -277.67815306 138.40139538 -274.6875 135.6875 C-269.63501575 131.04380709 -264.69601933 126.32112997 -259.875 121.4375 C-255.97958868 117.50020253 -252.04942965 113.69291197 -247.82421875 110.10546875 C-245.32966397 107.95966726 -242.92031018 105.72914323 -240.5 103.5 C-236.00751362 99.40300073 -231.39342718 95.51379574 -226.66015625 91.69921875 C-224.21300905 89.7018901 -221.81567801 87.65871812 -219.4284668 85.59057617 C-207.20149025 75.03921231 -194.07170022 65.57722787 -180.8125 56.375 C-180.22170654 55.95879395 -179.63091309 55.54258789 -179.0222168 55.11376953 C-126.67050433 18.28172102 -63.67654601 0.41203092 0 0 Z M-91.8125 53.375 C-92.47556152 53.5920459 -93.13862305 53.8090918 -93.82177734 54.03271484 C-134.38946849 67.53452251 -169.81838856 93.64677008 -201.8125 121.375 C-202.54597656 122.00792969 -203.27945313 122.64085938 -204.03515625 123.29296875 C-208.52957394 127.19766166 -212.9458038 131.18839854 -217.36328125 135.1796875 C-219.55549214 137.1446357 -221.77097701 139.07709042 -224 141 C-227.12784126 143.72040703 -230.04867918 146.58657084 -232.95033264 149.54472351 C-234.68999987 151.25459777 -236.47957821 152.83813095 -238.33764648 154.41723633 C-243.74400607 159.12145922 -248.82015968 164.15915152 -253.91015625 169.19921875 C-254.42259825 169.70633707 -254.93504025 170.21345539 -255.46301079 170.73594093 C-258.16232842 173.40877491 -260.85812963 176.08510379 -263.55151367 178.76391602 C-265.77643924 180.97539297 -268.00845912 183.17932752 -270.24682617 185.37719727 C-272.96439378 188.04563352 -275.6696542 190.7259649 -278.3663311 193.41550636 C-279.39280519 194.43525658 -280.42353822 195.45073819 -281.45854378 196.46182823 C-282.89678875 197.86864879 -284.31811916 199.2926999 -285.73852539 200.7175293 C-286.55156631 201.52248337 -287.36460724 202.32743744 -288.20228577 203.15678406 C-290.06249649 205.21584089 -290.06249649 205.21584089 -289.64476013 207.56575012 C-286.69857815 213.97045363 -279.22098542 218.57085875 -273.890625 222.8671875 C-270.54826757 225.59027566 -267.26848343 228.37665878 -264 231.1875 C-263.41798828 231.68644775 -262.83597656 232.18539551 -262.23632812 232.69946289 C-259.13623441 235.36111235 -256.05220387 238.0394969 -252.984375 240.73828125 C-252.35893799 241.28444092 -251.73350098 241.83060059 -251.08911133 242.39331055 C-249.89397701 243.43740705 -248.70342367 244.48677889 -247.51831055 245.54223633 C-244.44092074 248.22189619 -241.71843576 250.13848402 -237.8125 251.375 C-236.86503906 250.37533203 -236.86503906 250.37533203 -235.8984375 249.35546875 C-230.29696542 243.58449968 -224.54067052 238.40399209 -218.15893555 233.51147461 C-214.00458762 230.32607742 -209.9755877 227.0306424 -206 223.625 C-201.86963771 220.0951622 -197.68620981 216.67275136 -193.37109375 213.37109375 C-189.89041822 210.65563544 -186.48065212 207.85600095 -183.0625 205.0625 C-177.13420434 200.22504382 -171.13715851 195.50086161 -165.0546875 190.859375 C-161.44852174 188.10525211 -157.87890622 185.30532295 -154.3125 182.5 C-153.73677246 182.04737793 -153.16104492 181.59475586 -152.56787109 181.12841797 C-150.05403517 179.14940932 -147.55518981 177.16131424 -145.09375 175.1171875 C-140.95642462 171.95751778 -136.82089678 172.00496381 -131.8125 172.375 C-128.77717738 172.91534381 -125.79632701 173.60141522 -122.8125 174.375 C-121.45404339 185.46220145 -122.39192212 192.59716753 -129.19213867 201.62182617 C-130.21561152 202.92785983 -131.25115517 204.22452851 -132.29882812 205.51123047 C-133.72820564 207.27120917 -135.09858125 209.06099308 -136.453125 210.87890625 C-141.69032451 217.88293335 -147.2417898 224.63512839 -152.8125 231.375 C-154.31349484 233.20751892 -155.81349052 235.04085669 -157.3125 236.875 C-158.05757812 237.78507813 -158.80265625 238.69515625 -159.5703125 239.6328125 C-161.0465486 241.43824411 -162.52056736 243.24549141 -163.9921875 245.0546875 C-167.55384425 249.42754009 -171.14062874 253.77330695 -174.80151367 258.06323242 C-179.5842685 263.66824701 -184.20897712 269.36771219 -188.7331543 275.18334961 C-193.29145658 281.02827611 -198.03088182 286.71173855 -202.8125 292.375 C-198.90588479 297.85958135 -194.62869365 302.85098932 -190.08984375 307.8203125 C-187.27402451 310.97905312 -184.66963374 314.27554477 -182.05078125 317.59765625 C-177.9248575 322.71725797 -173.60112014 327.67027892 -169.30371094 332.64599609 C-166.79949894 335.54953724 -164.30617523 338.46240935 -161.8125 341.375 C-155.16919509 336.17589181 -150.0723954 329.91455399 -144.8125 323.375 C-144.13058594 322.53582031 -143.44867188 321.69664062 -142.74609375 320.83203125 C-139.13363252 316.35841764 -135.61529069 311.81941439 -132.125 307.25 C-127.76008668 301.53791222 -123.24897602 295.95465334 -118.70043945 290.38818359 C-115.1899244 286.0866318 -111.72872066 281.75173959 -108.3125 277.375 C-103.8306114 271.63480746 -99.25293222 265.97806483 -94.6484375 260.3359375 C-91.15719917 256.05048382 -87.71431112 251.73170547 -84.3125 247.375 C-80.37054715 242.32653407 -76.3620608 237.33753972 -72.3125 232.375 C-66.83193259 225.6544633 -61.43206153 218.87728223 -56.10791016 212.03222656 C-54.84566706 210.41743083 -53.57083648 208.81338264 -52.29296875 207.2109375 C-17.05230004 162.72227559 4.52629155 101.29198098 4.1875 44.375 C3.5166624 41.3206948 3.5166624 41.3206948 1.37939453 40.20629883 C-2.33892203 38.79608855 -6.00001438 39.03727611 -9.9375 39.0625 C-10.85619873 39.06741455 -11.77489746 39.0723291 -12.72143555 39.07739258 C-39.6317953 39.51567205 -66.33191798 44.90011926 -91.8125 53.375 Z M-338.8125 355.375 C-339.55822266 356.12595947 -340.30394531 356.87691895 -341.07226562 357.65063477 C-343.87269739 360.4693374 -346.67657745 363.28458919 -349.48144531 366.09887695 C-350.68875065 367.31117248 -351.89515234 368.5243687 -353.10058594 369.73852539 C-358.84245082 375.52085947 -364.54641945 381.25472924 -370.75585938 386.53881836 C-375.65721308 390.91477767 -380.19761024 395.7002876 -384.8125 400.375 C-396.38389385 412.0963934 -396.38389385 412.0963934 -400.71875 415.78125 C-406.94073246 421.09050362 -412.56614607 427.06318719 -418.3125 432.875 C-431.56496337 446.27842716 -431.56496337 446.27842716 -437.75585938 451.54101562 C-442.65930225 455.91360144 -447.19810458 460.70078834 -451.8125 465.375 C-463.59871584 477.31400012 -463.59871584 477.31400012 -469.82373047 482.63525391 C-473.99383477 486.28319931 -477.92589602 490.17886722 -481.875 494.0625 C-482.73416016 494.88427734 -483.59332031 495.70605469 -484.47851562 496.55273438 C-492.17679478 504.14515484 -500.72151298 514.33695575 -500.8359375 525.703125 C-500.24405375 535.85860409 -496.08360527 543.38903611 -488.8125 550.375 C-483.34376422 554.6160604 -478.03726342 556.92023905 -471.0078125 556.6796875 C-456.52188877 554.66918563 -445.93835276 542.23547025 -436.89453125 531.7421875 C-434.25203651 528.7377751 -431.5341141 525.80764387 -428.8125 522.875 C-423.93852365 517.61396383 -419.15973328 512.29110112 -414.49951172 506.83886719 C-407.55081465 498.71246392 -400.46858147 490.7569038 -393.1015625 483.00585938 C-389.46073843 479.16942086 -385.93156005 475.2594028 -382.46435547 471.26538086 C-380.1270089 468.59052504 -377.72309656 465.98411627 -375.3125 463.375 C-372.27281004 460.07547223 -369.25091941 456.76548393 -366.3125 453.375 C-363.37405935 449.98449156 -360.35133698 446.67533018 -357.3125 443.375 C-353.67082111 439.41910817 -350.077505 435.42938376 -346.5546875 431.3671875 C-343.73665576 428.14477453 -340.85698387 424.97805021 -337.98828125 421.80078125 C-336.13806437 419.73797212 -334.31305191 417.6578763 -332.5 415.5625 C-329.34172281 411.93305791 -326.08277438 408.40309684 -322.8125 404.875 C-317.71784277 399.37308757 -317.71784277 399.37308757 -312.6875 393.8125 C-312.16929687 393.23371094 -311.65109375 392.65492188 -311.1171875 392.05859375 C-309.72123388 390.25722846 -308.76217057 388.44166404 -307.8125 386.375 C-308.23660156 385.9625 -308.66070312 385.55 -309.09765625 385.125 C-312.13786427 382.13156441 -315.09311947 379.1110651 -317.875 375.875 C-321.52559296 371.65635138 -325.28123267 367.53882098 -329.0625 363.4375 C-329.67746338 362.76203125 -330.29242676 362.0865625 -330.92602539 361.390625 C-331.51246826 360.75769531 -332.09891113 360.12476563 -332.703125 359.47265625 C-333.22938477 358.90039307 -333.75564453 358.32812988 -334.29785156 357.73852539 C-335.88197357 356.12978676 -335.88197357 356.12978676 -338.8125 355.375 Z " fill="#FFFFFF" transform="translate(538.8125,-0.37500000000000006)"/>
<path d="M0 0 C1.27447998 -0.01393799 2.54895996 -0.02787598 3.86206055 -0.04223633 C15.11423514 0.01559809 24.46231086 1.95357476 33.1875 9.375 C42.44442104 19.31911605 43.73972143 30.42634477 43.32373047 43.56494141 C39.37676658 124.97991333 11.45124306 193.31923405 -40.34765625 255.4140625 C-46.47631335 262.77622111 -52.48742024 270.21568596 -58.37915039 277.76782227 C-62.06836058 282.47579426 -65.86515589 287.08731965 -69.6875 291.6875 C-75.0258524 298.11793763 -80.15203714 304.68001513 -85.19433594 311.34423828 C-89.11180765 316.50556124 -93.18426085 321.48792763 -97.3671875 326.4375 C-99.99803657 329.59788099 -102.53696697 332.81799297 -105.0625 336.0625 C-110.42197197 342.93894895 -115.95141688 349.66758922 -121.515625 356.37890625 C-123.50881216 358.78496789 -125.48276837 361.20250392 -127.421875 363.65234375 C-134.48672439 372.53212859 -142.17473217 381.11092517 -153.8125 383.375 C-162.06563373 384.05716959 -169.7857617 384.11980755 -176.8125 379.375 C-184.93563093 372.45976112 -192.05049967 364.41231244 -198.640625 356.05078125 C-201.08058073 353.04472068 -203.67391513 350.2051608 -206.3125 347.375 C-210.61030541 342.75660717 -214.64024777 337.98275277 -218.59765625 333.06640625 C-222.18810806 328.70340573 -225.99309741 324.53751677 -229.8125 320.375 C-233.94387794 323.5994901 -237.2890597 326.99641525 -240.67578125 330.984375 C-243.87187947 334.56026551 -247.29487054 337.90009404 -250.72509766 341.25024414 C-253.04911417 343.53563953 -254.99651352 345.65102028 -256.8125 348.375 C-257.4725 348.375 -258.1325 348.375 -258.8125 348.375 C-259.03679687 348.92671875 -259.26109375 349.4784375 -259.4921875 350.046875 C-261.21635183 353.08711744 -263.43765822 355.18925673 -265.9375 357.625 C-266.84757812 358.51703125 -267.75765625 359.4090625 -268.6953125 360.328125 C-269.74332031 361.34132813 -269.74332031 361.34132813 -270.8125 362.375 C-269.3308074 366.19550783 -267.61659242 369.78606916 -265.71484375 373.41015625 C-262.61348118 380.16333968 -262.82194797 388.79684926 -264.75 395.875 C-268.98913201 406.78683979 -278.58558242 415.58482521 -286.49658203 423.96630859 C-288.1660873 425.75351553 -289.77683703 427.58639037 -291.375 429.4375 C-294.29048029 432.80919237 -297.2932992 436.09638808 -300.3125 439.375 C-303.95420497 443.33086722 -307.54749563 447.32061697 -311.0703125 451.3828125 C-313.12750399 453.73520635 -315.21846915 456.05534966 -317.3125 458.375 C-319.98298344 461.33369751 -322.63548058 464.30426472 -325.25 467.3125 C-328.06072525 470.54059512 -330.928299 473.71238443 -333.8125 476.875 C-340.92812673 484.46183844 -340.92812673 484.46183844 -347.37890625 492.59765625 C-347.85199219 493.18417969 -348.32507813 493.77070313 -348.8125 494.375 C-349.4725 494.375 -350.1325 494.375 -350.8125 494.375 C-351.07281006 494.95822021 -351.33312012 495.54144043 -351.60131836 496.14233398 C-352.89355532 498.52441563 -354.30757654 500.15538979 -356.19140625 502.09765625 C-356.86099365 502.79568359 -357.53058105 503.49371094 -358.22045898 504.21289062 C-359.28695679 505.31407227 -359.28695679 505.31407227 -360.375 506.4375 C-365.79556966 512.10295498 -370.92454038 517.81761179 -375.80078125 523.95703125 C-378.56488847 527.27932711 -381.61257733 530.25748925 -384.703125 533.2734375 C-387.23155211 535.79250007 -389.55078651 538.44614147 -391.875 541.15234375 C-394.2657275 543.89493235 -396.72336986 546.57359764 -399.1875 549.25 C-402.56341046 552.91854663 -405.92315003 556.59922825 -409.25 560.3125 C-409.97574219 561.11429688 -410.70148438 561.91609375 -411.44921875 562.7421875 C-413.18008955 564.6704634 -414.88605571 566.61194075 -416.58203125 568.5703125 C-428.6097663 582.27494339 -443.45195543 592.82507166 -462.14990234 594.59643555 C-483.17130897 595.61894537 -502.10953853 590.92845549 -518.34765625 576.8125 C-529.31729071 565.96455721 -535.10952111 552.38258431 -537.8125 537.375 C-538.039375 536.116875 -538.26625 534.85875 -538.5 533.5625 C-540.234564 515.57582552 -538.16324546 497.38635216 -526.53027344 482.76318359 C-523.14722845 478.78123205 -519.49856081 475.07418625 -515.8125 471.375 C-514.68429498 470.22194177 -513.55669598 469.06829027 -512.4296875 467.9140625 C-508.11715436 463.53111561 -503.81669559 459.20907368 -499.140625 455.2109375 C-493.57955666 450.39373166 -488.47612649 445.108789 -483.3125 439.875 C-472.27243021 428.68491955 -472.27243021 428.68491955 -467.9375 425 C-461.70727793 419.67715386 -456.06952141 413.6976018 -450.3125 407.875 C-436.97290588 394.38344956 -436.97290588 394.38344956 -430.77539062 389.11523438 C-426.4179274 385.25205056 -422.39905607 381.02018672 -418.3125 376.875 C-412.9684249 371.45425237 -407.63184589 366.14147975 -401.84960938 361.18945312 C-397.64942794 357.44835193 -393.75821106 353.38049456 -389.8125 349.375 C-384.56977547 344.05284025 -379.31845783 338.85841343 -373.64404297 333.99707031 C-371.28477764 331.90763298 -369.11931643 329.66793734 -366.9440918 327.38989258 C-359.83446168 319.95946073 -352.5370006 313.41816815 -341.8125 312.375 C-327.83275441 312.06952998 -319.72703457 317.0087172 -309.8671875 326.36328125 C-309.18914062 327.02714844 -308.51109375 327.69101562 -307.8125 328.375 C-304.06751917 324.7185369 -300.58449406 320.9178616 -297.1875 316.9375 C-296.66607422 316.32841797 -296.14464844 315.71933594 -295.60742188 315.09179688 C-291.60018855 310.3771197 -287.75893147 305.5499264 -283.98266602 300.64916992 C-281.55920532 297.52500246 -279.07113945 294.49072285 -276.45703125 291.5234375 C-275.90144531 290.89179688 -275.34585937 290.26015625 -274.7734375 289.609375 C-273.69755935 288.39582524 -272.61324676 287.18968623 -271.51953125 285.9921875 C-268.24009853 282.30817415 -268.24009853 282.30817415 -267.8125 277.375 C-269.19337533 275.6848927 -269.19337533 275.6848927 -271.14453125 274.23828125 C-271.85488525 273.66585693 -272.56523926 273.09343262 -273.29711914 272.50366211 C-274.06531982 271.90432861 -274.83352051 271.30499512 -275.625 270.6875 C-276.40673584 270.06174072 -277.18847168 269.43598145 -277.99389648 268.79125977 C-279.55666816 267.5407521 -281.12310188 266.29480567 -282.69335938 265.05371094 C-285.2800726 263.00460493 -287.82971085 260.91275393 -290.375 258.8125 C-293.46881093 256.27991392 -296.57287988 253.76081399 -299.6875 251.25390625 C-329.53841533 227.1957446 -329.53841533 227.1957446 -331.11450195 216.28417969 C-331.88791136 203.47916016 -330.49075344 194.41028843 -322.00390625 184.4453125 C-321.28584808 183.60018852 -321.28584808 183.60018852 -320.55328369 182.73799133 C-314.74065466 175.99969513 -308.41060241 169.79057894 -302.0625 163.5625 C-299.71008354 161.24697036 -297.36110304 158.9280262 -295.015625 156.60546875 C-294.45950531 156.05525558 -293.90338562 155.50504242 -293.33041382 154.93815613 C-289.83590954 151.45828634 -286.54314228 147.86630229 -283.34765625 144.1081543 C-280.66723821 141.08202712 -277.67815306 138.40139538 -274.6875 135.6875 C-269.63501575 131.04380709 -264.69601933 126.32112997 -259.875 121.4375 C-255.97958868 117.50020253 -252.04942965 113.69291197 -247.82421875 110.10546875 C-245.32966397 107.95966726 -242.92031018 105.72914323 -240.5 103.5 C-236.00751362 99.40300073 -231.39342718 95.51379574 -226.66015625 91.69921875 C-224.21300905 89.7018901 -221.81567801 87.65871812 -219.4284668 85.59057617 C-207.20149025 75.03921231 -194.07170022 65.57722787 -180.8125 56.375 C-180.22170654 55.95879395 -179.63091309 55.54258789 -179.0222168 55.11376953 C-126.67050433 18.28172102 -63.67654601 0.41203092 0 0 Z M-178.8125 59.375 C-179.53139404 59.88458252 -180.25028809 60.39416504 -180.9909668 60.91918945 C-197.30158622 72.48414392 -213.04878979 84.59473194 -228.04199219 97.82666016 C-229.76567682 99.33405232 -231.50661692 100.81767379 -233.2578125 102.29296875 C-246.04012509 113.06535781 -258.19165167 124.52805362 -269.87915039 136.47827148 C-273.60983463 140.27366732 -273.60983463 140.27366732 -275.8125 141.375 C-275.8125 142.035 -275.8125 142.695 -275.8125 143.375 C-276.8025 143.705 -277.7925 144.035 -278.8125 144.375 C-278.8125 145.035 -278.8125 145.695 -278.8125 146.375 C-279.8025 146.705 -280.7925 147.035 -281.8125 147.375 C-281.8125 148.035 -281.8125 148.695 -281.8125 149.375 C-282.8025 149.705 -283.7925 150.035 -284.8125 150.375 C-286.27361111 151.82113191 -286.27361111 151.82113191 -287.72265625 153.66796875 C-290.8694818 157.37823222 -294.21199556 160.83440121 -297.68359375 164.23828125 C-298.21336823 164.76001923 -298.7431427 165.2817572 -299.28897095 165.81930542 C-301.49145415 167.98618446 -303.69690518 170.14983887 -305.91235352 172.3034668 C-322.23453277 188.1050516 -322.23453277 188.1050516 -328.3125 209.25 C-328.010649 220.13985546 -323.47526865 226.46913377 -315.73828125 233.81640625 C-312.02173238 237.06652576 -308.18229776 240.12158237 -304.26782227 243.12866211 C-299.99391329 246.41358636 -295.87876499 249.83705848 -291.8125 253.375 C-285.50015748 258.85208101 -278.99736327 264.0453724 -272.38720703 269.15722656 C-270.06564254 270.95256977 -267.75231405 272.75846651 -265.4375 274.5625 C-264.22946018 275.50037819 -263.02126045 276.43805076 -261.8125 277.375 C-263.16010867 281.34800173 -264.85804363 283.79503377 -267.75 286.8125 C-271.42720101 290.77753304 -274.82553003 294.84885372 -278.125 299.125 C-281.95579786 304.07593399 -285.90267924 308.89214473 -290 313.625 C-298.32399479 323.17517188 -298.32399479 323.17517188 -305.8125 333.375 C-308.82283512 332.04213024 -310.68888334 330.63080686 -312.875 328.1875 C-320.41981413 320.5142635 -328.85542142 315.47552366 -339.8125 315.375 C-353.10454916 316.83190931 -361.02401117 326.36365644 -369.87768555 335.42456055 C-373.04135714 338.65723774 -376.22376324 341.78343579 -379.66015625 344.7265625 C-384.77425009 349.12666962 -389.45466998 353.94767175 -394.1875 358.75 C-395.9638414 360.55175401 -397.74237339 362.35135183 -399.5234375 364.1484375 C-400.68818604 365.33058838 -400.68818604 365.33058838 -401.87646484 366.53662109 C-403.8125 368.375 -403.8125 368.375 -405.8125 369.375 C-405.8125 370.035 -405.8125 370.695 -405.8125 371.375 C-406.64019897 371.71265381 -406.64019897 371.71265381 -407.48461914 372.05712891 C-410.52431265 373.7779748 -412.61136329 375.96846412 -415.05859375 378.4609375 C-415.55158463 378.95912994 -416.0445755 379.45732239 -416.55250549 379.97061157 C-418.12318619 381.55904367 -419.68701086 383.15400184 -421.25 384.75 C-422.8102451 386.33799888 -424.37197424 387.92446247 -425.93678284 389.50796509 C-427.36019765 390.94912634 -428.77874511 392.39509021 -430.19702148 393.84130859 C-432.8125 396.375 -432.8125 396.375 -435.64868164 398.58447266 C-436.71977173 399.47078369 -436.71977173 399.47078369 -437.8125 400.375 C-437.8125 401.035 -437.8125 401.695 -437.8125 402.375 C-438.62315918 402.69561401 -438.62315918 402.69561401 -439.45019531 403.02270508 C-442.66407021 404.86247906 -445.04602637 407.38239832 -447.609375 410.01171875 C-448.16183899 410.56938431 -448.71430298 411.12704987 -449.2835083 411.70161438 C-451.04800514 413.48387805 -452.80568795 415.27266335 -454.5625 417.0625 C-456.86635591 419.40315361 -459.17341435 421.74057927 -461.484375 424.07421875 C-462.044664 424.64009705 -462.604953 425.20597534 -463.18222046 425.78900146 C-466.58243866 429.20165803 -470.07952549 432.41977479 -473.75195312 435.53930664 C-478.61465432 439.87137421 -483.11392659 444.61609679 -487.6875 449.25 C-489.74451953 451.33360255 -491.80483984 453.41386023 -493.8671875 455.4921875 C-494.76937012 456.40597168 -495.67155273 457.31975586 -496.60107422 458.26123047 C-498.8125 460.375 -498.8125 460.375 -500.8125 461.375 C-500.8125 462.035 -500.8125 462.695 -500.8125 463.375 C-501.68974731 463.76655273 -501.68974731 463.76655273 -502.5847168 464.16601562 C-506.55111231 466.31851871 -509.46808919 469.69271501 -512.625 472.875 C-513.34405518 473.59969482 -514.06311035 474.32438965 -514.80395508 475.07104492 C-527.34912888 487.90513961 -535.61075179 502.79443738 -536.1875 521.125 C-535.61038175 540.1197181 -529.97843198 560.94178864 -515.8125 574.375 C-500.33880922 587.26974232 -481.78191954 593.04259245 -461.8125 591.375 C-450.03028678 589.7538601 -436.31403996 583.90294226 -427.8125 575.375 C-427.8125 574.715 -427.8125 574.055 -427.8125 573.375 C-427.26722656 573.16617188 -426.72195313 572.95734375 -426.16015625 572.7421875 C-422.93919239 570.8664182 -420.703445 568.2531024 -418.25 565.5 C-417.72623779 564.92209717 -417.20247559 564.34419434 -416.6628418 563.7487793 C-415.57542447 562.54887616 -414.4902356 561.34694988 -413.40722656 560.14306641 C-411.45231753 557.97566726 -409.4771508 555.82753027 -407.49975586 553.68066406 C-402.97217441 548.76312043 -398.48127536 543.81290063 -394.0234375 538.83203125 C-392.45622614 537.09037764 -390.87682277 535.35965985 -389.2890625 533.63671875 C-388.06316406 532.30060547 -388.06316406 532.30060547 -386.8125 530.9375 C-385.69875 529.73287109 -385.69875 529.73287109 -384.5625 528.50390625 C-382.62306595 526.40359439 -382.62306595 526.40359439 -381.8125 523.375 C-381.1525 523.375 -380.4925 523.375 -379.8125 523.375 C-378.3796282 521.75781689 -377.01625251 520.07876628 -375.6875 518.375 C-372.23452907 514.05325273 -368.66020134 510.10594237 -364.69921875 506.25390625 C-362.2586204 503.8234139 -360.03118798 501.24209765 -357.78515625 498.6328125 C-355.38048403 495.8805342 -352.9125459 493.18877089 -350.4375 490.5 C-344.34557865 483.87585574 -338.28300403 477.22688459 -332.375 470.4375 C-328.72071138 466.24057919 -324.96505027 462.1384724 -321.21484375 458.02734375 C-319.24308156 455.85039004 -317.29884663 453.65661326 -315.375 451.4375 C-311.94481424 447.48832633 -308.40246482 443.64477695 -304.85961914 439.79711914 C-301.74014714 436.40345493 -298.68561962 432.96389556 -295.671875 429.4765625 C-293.80645805 427.36817107 -291.89072094 425.3119817 -289.96704102 423.25683594 C-273.0318288 405.96388338 -273.0318288 405.96388338 -266.53125 383.64453125 C-267.48265041 375.96725846 -271.98207397 368.9426015 -275.8125 362.375 C-274.88308594 361.4571875 -273.95367187 360.539375 -272.99609375 359.59375 C-270.43682202 357.05663947 -267.88159485 354.51561864 -265.3359375 351.96484375 C-264.74474121 351.3730835 -264.15354492 350.78132324 -263.54443359 350.17163086 C-261.20563077 347.74546086 -259.02126951 345.20277566 -256.84765625 342.62890625 C-253.16831535 338.55408917 -249.20788853 334.74986669 -245.30566406 330.88989258 C-241.42125723 327.03223116 -237.67555287 323.13311425 -234.20703125 318.890625 C-232.57338488 317.11512138 -230.77512618 315.77027172 -228.8125 314.375 C-228.57660156 314.93058594 -228.34070313 315.48617188 -228.09765625 316.05859375 C-226.4997248 318.93875591 -224.507495 321.03869076 -222.25 323.4375 C-218.8171517 327.12863459 -215.53311908 330.87910259 -212.375 334.8125 C-208.71590714 339.34925888 -204.86525284 343.6363607 -200.89428711 347.89648438 C-197.92801018 351.09880319 -195.14789205 354.39224336 -192.4375 357.8125 C-180.14844435 373.31913544 -180.14844435 373.31913544 -162.51171875 380.6953125 C-153.36649455 381.16915831 -146.36041341 377.74477758 -139.48828125 371.94140625 C-134.14538718 366.81690785 -129.47365107 361.11598723 -124.8125 355.375 C-124.12542969 354.529375 -123.43835938 353.68375 -122.73046875 352.8125 C-121.48368833 351.25861787 -120.24287756 349.69992871 -119.0078125 348.13671875 C-116.11952814 344.50323647 -113.18295505 340.90994945 -110.25 337.3125 C-106.31232097 332.47520976 -102.40326044 327.62288548 -98.59375 322.68359375 C-91.14087965 313.02428153 -83.51533234 303.51201591 -75.80859375 294.0546875 C-71.23116236 288.43738466 -66.69485429 282.78884082 -62.234375 277.078125 C-56.99119716 270.36770901 -51.67428086 263.74631739 -46.19921875 257.22265625 C-43.19585211 253.63926135 -40.23233956 250.02495249 -37.28125 246.3984375 C-35.45791596 244.16543031 -33.62435484 241.9431144 -31.78125 239.7265625 C-15.32887557 219.85332371 -1.86662872 198.69123439 9.1875 175.375 C9.66799805 174.38209961 9.66799805 174.38209961 10.15820312 173.36914062 C27.3720947 137.60668198 35.15814015 98.01427222 39 58.75 C39.18598755 56.85773682 39.18598755 56.85773682 39.37573242 54.92724609 C40.7522283 39.74623108 41.91305782 26.02683186 32.1875 13.375 C22.1610777 3.51430369 10.02305095 3.11587038 -3.23706055 3.12841797 C-65.47219482 3.71794172 -128.14926313 22.93799584 -178.8125 59.375 Z " fill="#000000" transform="translate(538.8125,-0.37500000000000006)"/>
<path d="M0 0 C1.16805176 -0.00571014 2.33610352 -0.01142029 3.53955078 -0.01730347 C4.83256607 -0.01842133 6.12558136 -0.01953918 7.45777893 -0.02069092 C8.82412348 -0.02531678 10.19046674 -0.03034113 11.55680847 -0.03573608 C15.27783875 -0.04888349 18.99885096 -0.05530945 22.71990085 -0.05974674 C25.04211151 -0.06267339 27.36431718 -0.06677738 29.68652534 -0.07125092 C36.94485147 -0.08493132 44.20316627 -0.09459561 51.4615044 -0.09845281 C59.85399046 -0.10293662 68.2463139 -0.12049713 76.63875049 -0.1494534 C83.11688335 -0.17103275 89.59497033 -0.18115506 96.07313877 -0.18249393 C99.94652202 -0.18354456 103.81975251 -0.18950679 107.69309807 -0.20731354 C111.33498155 -0.22373 114.9765964 -0.22598137 118.61850357 -0.21717453 C120.59814648 -0.21603065 122.57778023 -0.22979715 124.55737305 -0.243927 C125.72824463 -0.23835785 126.89911621 -0.2327887 128.10546875 -0.22705078 C129.12736014 -0.22851734 130.14925154 -0.2299839 131.20210934 -0.2314949 C131.9987679 -0.10875576 132.79542646 0.01398338 133.6162262 0.14044189 C136.25426972 4.09750718 135.90363915 7.52139619 135.8818512 12.11309814 C135.88376465 12.99195175 135.8856781 13.87080536 135.88764954 14.77629089 C135.88901005 16.63311042 135.88532294 18.48993949 135.87696838 20.34674072 C135.86625415 23.19550825 135.8768747 26.04364697 135.8896637 28.89239502 C135.88834233 30.69513079 135.88578041 32.49786617 135.8818512 34.30059814 C135.88589966 35.15581558 135.88994812 36.01103302 135.89411926 36.89216614 C135.84615238 42.91051571 135.84615238 42.91051571 133.6162262 45.14044189 C131.20210934 45.38933086 131.20210934 45.38933086 128.10546875 45.38768005 C126.93459717 45.39187454 125.76372559 45.39606903 124.55737305 45.40039062 C123.26638199 45.39477112 121.97539093 45.38915161 120.64527893 45.38336182 C119.27716481 45.3844343 117.90905113 45.38637248 116.54093933 45.38911438 C112.81999024 45.39397079 109.09916067 45.38629752 105.37822604 45.37616134 C101.49093172 45.36739526 97.6036413 45.36913799 93.71633911 45.36952209 C87.18856295 45.36858489 80.66083322 45.35989281 74.1330719 45.34625244 C66.57587085 45.33051975 59.01872064 45.32525453 51.4615044 45.32598799 C44.20317084 45.32659742 36.94485391 45.32150024 29.68652534 45.31319618 C26.59203525 45.30965712 23.49755103 45.30783205 20.40305901 45.30730247 C16.76286952 45.30630112 13.12272306 45.30022162 9.48254776 45.29013634 C7.50155325 45.28580136 5.52054991 45.28638454 3.53955078 45.28707886 C2.37149902 45.28281387 1.20344727 45.27854889 0 45.27415466 C-1.02151437 45.27247882 -2.04302874 45.27080297 -3.09549809 45.26907635 C-5.3837738 45.14044189 -5.3837738 45.14044189 -6.3837738 44.14044189 C-6.48162722 42.79499863 -6.51175365 41.44451627 -6.51316833 40.09552002 C-6.5163205 39.23793091 -6.51947266 38.3803418 -6.52272034 37.49676514 C-6.52069611 36.56449097 -6.51867188 35.6322168 -6.5165863 34.67169189 C-6.51754303 33.72104858 -6.51849976 32.77040527 -6.51948547 31.79095459 C-6.52016737 29.77675307 -6.51831242 27.76254937 -6.5141449 25.74835205 C-6.50879678 22.65373835 -6.51408957 19.5592698 -6.52049255 16.46466064 C-6.51983177 14.51283741 -6.51855061 12.56101426 -6.5165863 10.60919189 C-6.51861053 9.67691772 -6.52063477 8.74464355 -6.52272034 7.78411865 C-6.51956818 6.92652954 -6.51641602 6.06894043 -6.51316833 5.18536377 C-6.51237274 4.42671021 -6.51157715 3.66805664 -6.51075745 2.88641357 C-6.22972159 -0.97771122 -3.20158826 0.00932307 0 0 Z " fill="#DE5E5E" transform="translate(70.38377380371094,194.85955810546875)"/>
<path d="M0 0 C1.04986084 -0.01393799 2.09972168 -0.02787598 3.18139648 -0.04223633 C12.42683527 0.01641892 12.42683527 0.01641892 16.1875 3.375 C19.24970523 12.56161568 16.7522774 23.75436866 15.5 33.125 C15.41102448 33.79863586 15.32204895 34.47227173 15.2303772 35.1663208 C11.42861206 63.73693253 4.89526106 91.95802418 -6.8125 118.375 C-7.18745605 119.22513672 -7.56241211 120.07527344 -7.94873047 120.95117188 C-18.47515727 144.53808407 -32.15908915 164.82456399 -48.5859375 184.65625 C-51.12485955 187.75640745 -53.59650447 190.9042875 -56.0625 194.0625 C-60.08840148 199.2146023 -64.17817126 204.30953262 -68.3125 209.375 C-72.36228432 214.33735316 -76.37055119 219.32653924 -80.3125 224.375 C-84.25445046 229.42346287 -88.26280922 234.41256894 -92.3125 239.375 C-96.84004072 244.92418059 -101.30765862 250.51415637 -105.71875 256.15625 C-109.55069553 261.05447603 -113.43382943 265.91029685 -117.32568359 270.76098633 C-120.74493046 275.02756357 -124.13008729 279.31939498 -127.5 283.625 C-134.8613627 293.00125789 -142.18271749 302.11244228 -150.8125 310.375 C-154.57631862 308.86778852 -156.39713482 306.72583069 -158.875 303.5625 C-159.66003906 302.57636719 -160.44507813 301.59023438 -161.25390625 300.57421875 C-161.66914551 300.05134277 -162.08438477 299.5284668 -162.51220703 298.98974609 C-164.72627109 296.24024934 -167.02183768 293.56070061 -169.3125 290.875 C-173.42685868 286.03520556 -177.47167631 281.14523826 -181.47265625 276.2109375 C-183.20757207 274.10818477 -184.96057602 272.03548582 -186.74609375 269.9765625 C-187.24496094 269.39841797 -187.74382812 268.82027344 -188.2578125 268.22460938 C-189.22750316 267.10388052 -190.20249387 265.9877079 -191.18359375 264.87695312 C-193.78525822 261.86310635 -195.58600738 259.17362286 -196.8125 255.375 C-196.0390625 254.48039063 -195.265625 253.58578125 -194.46875 252.6640625 C-189.11374035 246.45376875 -183.81676999 240.21990077 -178.7265625 233.7890625 C-173.86897632 227.66255585 -168.89603224 221.63250207 -163.8215332 215.68481445 C-159.05032802 210.09217758 -154.43938465 204.40595736 -149.93359375 198.59741211 C-146.87507918 194.67300434 -143.69610232 190.88379276 -140.4375 187.125 C-134.26844926 179.96295883 -128.74796706 172.31945545 -123.34570312 164.56811523 C-122.28957807 163.05741916 -121.21408763 161.56013877 -120.12304688 160.07446289 C-116.81809336 155.43681929 -115.06086994 152.17257204 -114.9375 146.3125 C-114.89882813 145.18714844 -114.86015625 144.06179687 -114.8203125 142.90234375 C-114.81773437 142.06832031 -114.81515625 141.23429688 -114.8125 140.375 C-124.2716937 138.73153492 -124.2716937 138.73153492 -132.96484375 141.82421875 C-133.57457031 142.33597656 -134.18429687 142.84773437 -134.8125 143.375 C-135.68003906 144.08269531 -136.54757812 144.79039062 -137.44140625 145.51953125 C-139.50221792 147.22567911 -141.54852782 148.94240181 -143.5859375 150.67578125 C-147.18542625 153.71740362 -150.92579875 156.56275379 -154.67651367 159.41479492 C-159.80288596 163.33158224 -164.79917253 167.39972519 -169.79321289 171.4831543 C-174.15428123 175.04369059 -178.55705143 178.5423677 -183 182 C-188.19928678 186.05084698 -193.25631278 190.24214252 -198.26367188 194.52734375 C-201.28277244 197.10453415 -204.34197588 199.59546935 -207.5 202 C-214.76098853 207.56586805 -221.43266344 213.82727301 -227.8125 220.375 C-236.39428012 216.56309302 -243.42834298 208.86623729 -250.296875 202.61328125 C-253.71039705 199.57609471 -257.25574252 196.71641027 -260.8046875 193.83984375 C-264.30072879 190.97490601 -267.75078299 188.06064186 -271.1875 185.125 C-271.77047852 184.62959717 -272.35345703 184.13419434 -272.95410156 183.6237793 C-282.11180256 175.77639489 -282.11180256 175.77639489 -283.8125 172.375 C-283.8125 168.44020379 -281.06234054 165.65192021 -278.53144836 162.84671021 C-277.63846542 161.95515228 -276.74548248 161.06359436 -275.82543945 160.14501953 C-275.33066605 159.64834778 -274.83589264 159.15167603 -274.3261261 158.63995361 C-272.6975151 157.00765412 -271.0618408 155.3826435 -269.42578125 153.7578125 C-268.28301582 152.61624084 -267.14062163 151.47429743 -265.99858093 150.33200073 C-263.60508156 147.9400633 -261.20826906 145.55151409 -258.80883789 143.16552734 C-255.7520928 140.12570394 -252.70190289 137.07940828 -249.65398884 134.03073311 C-247.29407423 131.67109225 -244.93154786 129.31408084 -242.56816673 126.95791245 C-241.44379364 125.83669542 -240.32000221 124.71489474 -239.19683266 123.59247208 C-233.76753314 118.17072905 -228.34308019 112.79040366 -222.4806366 107.83029175 C-220.67293431 106.25324211 -218.99184955 104.58739612 -217.3125 102.875 C-214.32506076 99.84035517 -211.19838967 97.03213908 -207.97265625 94.25390625 C-205.5934369 92.18445868 -203.26692918 90.06278515 -200.9375 87.9375 C-196.9619108 84.3534461 -192.88593259 80.96099448 -188.6796875 77.65234375 C-186.5187474 75.93595672 -184.38277943 74.20133784 -182.2578125 72.44140625 C-152.78002062 48.07384268 -120.27853074 26.59681811 -83.8125 14.375 C-82.59433594 13.96411133 -82.59433594 13.96411133 -81.3515625 13.54492188 C-55.12886911 4.85289491 -27.62113365 0.23625065 0 0 Z M-81.8125 17.375 C-82.47556152 17.5920459 -83.13862305 17.8090918 -83.82177734 18.03271484 C-124.38946849 31.53452251 -159.81838856 57.64677008 -191.8125 85.375 C-192.54597656 86.00792969 -193.27945313 86.64085938 -194.03515625 87.29296875 C-198.52957394 91.19766166 -202.9458038 95.18839854 -207.36328125 99.1796875 C-209.55549214 101.1446357 -211.77097701 103.07709042 -214 105 C-217.12784126 107.72040703 -220.04867918 110.58657084 -222.95033264 113.54472351 C-224.68999987 115.25459777 -226.47957821 116.83813095 -228.33764648 118.41723633 C-233.74400607 123.12145922 -238.82015968 128.15915152 -243.91015625 133.19921875 C-244.42259825 133.70633707 -244.93504025 134.21345539 -245.46301079 134.73594093 C-248.16232842 137.40877491 -250.85812963 140.08510379 -253.55151367 142.76391602 C-255.77643924 144.97539297 -258.00845912 147.17932752 -260.24682617 149.37719727 C-262.96439378 152.04563352 -265.6696542 154.7259649 -268.3663311 157.41550636 C-269.39280519 158.43525658 -270.42353822 159.45073819 -271.45854378 160.46182823 C-272.89678875 161.86864879 -274.31811916 163.2926999 -275.73852539 164.7175293 C-276.55156631 165.52248337 -277.36460724 166.32743744 -278.20228577 167.15678406 C-280.06249649 169.21584089 -280.06249649 169.21584089 -279.64476013 171.56575012 C-276.69857815 177.97045363 -269.22098542 182.57085875 -263.890625 186.8671875 C-260.54826757 189.59027566 -257.26848343 192.37665878 -254 195.1875 C-253.41798828 195.68644775 -252.83597656 196.18539551 -252.23632812 196.69946289 C-249.13623441 199.36111235 -246.05220387 202.0394969 -242.984375 204.73828125 C-242.35893799 205.28444092 -241.73350098 205.83060059 -241.08911133 206.39331055 C-239.89397701 207.43740705 -238.70342367 208.48677889 -237.51831055 209.54223633 C-234.44092074 212.22189619 -231.71843576 214.13848402 -227.8125 215.375 C-226.86503906 214.37533203 -226.86503906 214.37533203 -225.8984375 213.35546875 C-220.29696542 207.58449968 -214.54067052 202.40399209 -208.15893555 197.51147461 C-204.00458762 194.32607742 -199.9755877 191.0306424 -196 187.625 C-191.86963771 184.0951622 -187.68620981 180.67275136 -183.37109375 177.37109375 C-179.89041822 174.65563544 -176.48065212 171.85600095 -173.0625 169.0625 C-167.13420434 164.22504382 -161.13715851 159.50086161 -155.0546875 154.859375 C-151.44852174 152.10525211 -147.87890622 149.30532295 -144.3125 146.5 C-143.73677246 146.04737793 -143.16104492 145.59475586 -142.56787109 145.12841797 C-140.05403517 143.14940932 -137.55518981 141.16131424 -135.09375 139.1171875 C-130.95642462 135.95751778 -126.82089678 136.00496381 -121.8125 136.375 C-118.77717738 136.91534381 -115.79632701 137.60141522 -112.8125 138.375 C-111.45404339 149.46220145 -112.39192212 156.59716753 -119.19213867 165.62182617 C-120.21561152 166.92785983 -121.25115517 168.22452851 -122.29882812 169.51123047 C-123.72820564 171.27120917 -125.09858125 173.06099308 -126.453125 174.87890625 C-131.69032451 181.88293335 -137.2417898 188.63512839 -142.8125 195.375 C-144.31349484 197.20751892 -145.81349052 199.04085669 -147.3125 200.875 C-148.05757812 201.78507813 -148.80265625 202.69515625 -149.5703125 203.6328125 C-151.0465486 205.43824411 -152.52056736 207.24549141 -153.9921875 209.0546875 C-157.55384425 213.42754009 -161.14062874 217.77330695 -164.80151367 222.06323242 C-169.5842685 227.66824701 -174.20897712 233.36771219 -178.7331543 239.18334961 C-183.29145658 245.02827611 -188.03088182 250.71173855 -192.8125 256.375 C-188.90588479 261.85958135 -184.62869365 266.85098932 -180.08984375 271.8203125 C-177.27402451 274.97905312 -174.66963374 278.27554477 -172.05078125 281.59765625 C-167.9248575 286.71725797 -163.60112014 291.67027892 -159.30371094 296.64599609 C-156.79949894 299.54953724 -154.30617523 302.46240935 -151.8125 305.375 C-145.16919509 300.17589181 -140.0723954 293.91455399 -134.8125 287.375 C-134.13058594 286.53582031 -133.44867188 285.69664062 -132.74609375 284.83203125 C-129.13363252 280.35841764 -125.61529069 275.81941439 -122.125 271.25 C-117.76008668 265.53791222 -113.24897602 259.95465334 -108.70043945 254.38818359 C-105.1899244 250.0866318 -101.72872066 245.75173959 -98.3125 241.375 C-93.8306114 235.63480746 -89.25293222 229.97806483 -84.6484375 224.3359375 C-81.15719917 220.05048382 -77.71431112 215.73170547 -74.3125 211.375 C-70.37054715 206.32653407 -66.3620608 201.33753972 -62.3125 196.375 C-56.83193259 189.6544633 -51.43206153 182.87728223 -46.10791016 176.03222656 C-44.84566706 174.41743083 -43.57083648 172.81338264 -42.29296875 171.2109375 C-7.05230004 126.72227559 14.52629155 65.29198098 14.1875 8.375 C13.5166624 5.3206948 13.5166624 5.3206948 11.37939453 4.20629883 C7.66107797 2.79608855 3.99998562 3.03727611 0.0625 3.0625 C-0.85619873 3.06741455 -1.77489746 3.0723291 -2.72143555 3.07739258 C-29.6317953 3.51567205 -56.33191798 8.90011926 -81.8125 17.375 Z " fill="#000000" transform="translate(528.8125,35.625)"/>
<path d="M0 0 C1.56494141 1.47314453 1.56494141 1.47314453 3.2265625 3.5078125 C5.63785078 6.38490345 8.07218617 9.19872296 10.6484375 11.9296875 C11.25727783 12.57526611 11.86611816 13.22084473 12.4934082 13.88598633 C13.1143335 14.54236084 13.73525879 15.19873535 14.375 15.875 C29.94120141 32.41180212 29.94120141 32.41180212 33 37 C28.76960973 41.93049007 24.41727848 46.7374393 20 51.5 C16.21364279 55.58297357 12.48232858 59.69769824 8.83984375 63.91015625 C6.43329774 66.64370638 3.96693297 69.32110702 1.5 72 C-2.14419551 75.95857261 -5.73913842 79.95176903 -9.265625 84.015625 C-12.79500714 88.05374691 -16.40634226 92.01914681 -20 96 C-21.50028679 97.66640851 -23.00028872 99.33307353 -24.5 101 C-42.5 121 -42.5 121 -44.7578125 123.5078125 C-46.23292618 125.14739879 -47.70691652 126.78799655 -49.1796875 128.4296875 C-52.74138134 132.39698349 -56.31748722 136.34794124 -59.93774414 140.26196289 C-64.37781628 145.06790139 -68.70312975 149.94915823 -72.9375 154.9375 C-77.4527741 160.25676334 -82.09994327 165.42662199 -86.85571289 170.53149414 C-89.41017423 173.27420991 -91.93128289 176.03318361 -94.375 178.875 C-119.57248927 207.75992672 -119.57248927 207.75992672 -133.84375 209.30859375 C-142.98790643 209.68960027 -149.2399237 207.49435425 -156.25 201.6875 C-163.92600177 194.4845719 -167.9292771 186.73518081 -168.4375 176.0625 C-167.84922131 160.39958 -156.75566364 149.27608357 -146.23022461 138.94897461 C-144.56162009 137.31163658 -142.90402157 135.66377345 -141.24804688 134.01367188 C-136.93066213 129.72830455 -132.62009829 125.45688767 -127.98828125 121.5078125 C-121.60381405 116.04742387 -115.84258255 109.86507943 -109.96533203 103.86938477 C-108.36921101 102.24325081 -106.76707677 100.62324105 -105.1640625 99.00390625 C-104.6745108 98.50089493 -104.18495911 97.99788361 -103.68057251 97.47962952 C-102.49116463 96.28138007 -101.24975604 95.13516637 -100 94 C-99.34 94 -98.68 94 -98 94 C-98 93.34 -98 92.68 -98 92 C-96.68945312 90.71289062 -96.68945312 90.71289062 -94.78125 89.15625 C-91.02061253 85.95838399 -87.50553541 82.59452366 -84.03125 79.09375 C-83.50249268 78.56168945 -82.97373535 78.02962891 -82.42895508 77.48144531 C-80.78398793 75.82291193 -79.14156073 74.16190465 -77.5 72.5 C-65.3699172 60.21958865 -65.3699172 60.21958865 -59.09179688 54.86914062 C-54.17993079 50.48010623 -49.62650789 45.68648114 -45 41 C-39.1735854 35.0980578 -33.38478666 29.23994321 -27.06884766 23.85498047 C-24.44714804 21.50429913 -21.97794568 19.01497651 -19.51171875 16.50390625 C-19.03662872 16.02094086 -18.5615387 15.53797546 -18.072052 15.04037476 C-16.10502115 13.03680463 -14.14123352 11.03025358 -12.1862793 9.01489258 C-10.73890304 7.52538501 -9.28239748 6.04532928 -7.82421875 4.56640625 C-6.96916748 3.68927979 -6.11411621 2.81215332 -5.2331543 1.90844727 C-3 0 -3 0 0 0 Z M-3 5 C-3.74572266 5.75095947 -4.49144531 6.50191895 -5.25976562 7.27563477 C-8.06019739 10.0943374 -10.86407745 12.90958919 -13.66894531 15.72387695 C-14.87625065 16.93617248 -16.08265234 18.1493687 -17.28808594 19.36352539 C-23.02995082 25.14585947 -28.73391945 30.87972924 -34.94335938 36.16381836 C-39.84471308 40.53977767 -44.38511024 45.3252876 -49 50 C-60.57139385 61.7213934 -60.57139385 61.7213934 -64.90625 65.40625 C-71.12823246 70.71550362 -76.75364607 76.68818719 -82.5 82.5 C-95.75246337 95.90342716 -95.75246337 95.90342716 -101.94335938 101.16601562 C-106.84680225 105.53860144 -111.38560458 110.32578834 -116 115 C-127.78621584 126.93900012 -127.78621584 126.93900012 -134.01123047 132.26025391 C-138.18133477 135.90819931 -142.11339602 139.80386722 -146.0625 143.6875 C-146.92166016 144.50927734 -147.78082031 145.33105469 -148.66601562 146.17773438 C-156.36429478 153.77015484 -164.90901298 163.96195575 -165.0234375 175.328125 C-164.43155375 185.48360409 -160.27110527 193.01403611 -153 200 C-147.53126422 204.2410604 -142.22476342 206.54523905 -135.1953125 206.3046875 C-120.70938877 204.29418563 -110.12585276 191.86047025 -101.08203125 181.3671875 C-98.43953651 178.3627751 -95.7216141 175.43264387 -93 172.5 C-88.12602365 167.23896383 -83.34723328 161.91610112 -78.68701172 156.46386719 C-71.73831465 148.33746392 -64.65608147 140.3819038 -57.2890625 132.63085938 C-53.64823843 128.79442086 -50.11906005 124.8844028 -46.65185547 120.89038086 C-44.3145089 118.21552504 -41.91059656 115.60911627 -39.5 113 C-36.46031004 109.70047223 -33.43841941 106.39048393 -30.5 103 C-27.56155935 99.60949156 -24.53883698 96.30033018 -21.5 93 C-17.85832111 89.04410817 -14.265005 85.05438376 -10.7421875 80.9921875 C-7.92415576 77.76977453 -5.04448387 74.60305021 -2.17578125 71.42578125 C-0.32556437 69.36297212 1.49944809 67.2828763 3.3125 65.1875 C6.47077719 61.55805791 9.72972562 58.02809684 13 54.5 C18.09465723 48.99808757 18.09465723 48.99808757 23.125 43.4375 C23.64320313 42.85871094 24.16140625 42.27992188 24.6953125 41.68359375 C26.09126612 39.88222846 27.05032943 38.06666404 28 36 C27.57589844 35.5875 27.15179688 35.175 26.71484375 34.75 C23.67463573 31.75656441 20.71938053 28.7360651 17.9375 25.5 C14.28690704 21.28135138 10.53126733 17.16382098 6.75 13.0625 C6.13503662 12.38703125 5.52007324 11.7115625 4.88647461 11.015625 C4.30003174 10.38269531 3.71358887 9.74976563 3.109375 9.09765625 C2.58311523 8.52539307 2.05685547 7.95312988 1.51464844 7.36352539 C-0.06947357 5.75478676 -0.06947357 5.75478676 -3 5 Z " fill="#000000" transform="translate(203,350)"/>
<path d="M0 0 C1.16805176 -0.00571014 2.33610352 -0.01142029 3.53955078 -0.01730347 C4.83256607 -0.01842133 6.12558136 -0.01953918 7.45777893 -0.02069092 C8.82412348 -0.02531678 10.19046674 -0.03034113 11.55680847 -0.03573608 C15.27783875 -0.04888349 18.99885096 -0.05530945 22.71990085 -0.05974674 C25.04211151 -0.06267339 27.36431718 -0.06677738 29.68652534 -0.07125092 C36.94485147 -0.08493132 44.20316627 -0.09459561 51.4615044 -0.09845281 C59.85399046 -0.10293662 68.2463139 -0.12049713 76.63875049 -0.1494534 C83.11688335 -0.17103275 89.59497033 -0.18115506 96.07313877 -0.18249393 C99.94652202 -0.18354456 103.81975251 -0.18950679 107.69309807 -0.20731354 C111.33498155 -0.22373 114.9765964 -0.22598137 118.61850357 -0.21717453 C120.59814648 -0.21603065 122.57778023 -0.22979715 124.55737305 -0.243927 C125.72824463 -0.23835785 126.89911621 -0.2327887 128.10546875 -0.22705078 C129.12736014 -0.22851734 130.14925154 -0.2299839 131.20210934 -0.2314949 C131.9987679 -0.10875576 132.79542646 0.01398338 133.6162262 0.14044189 C136.25426972 4.09750718 135.90363915 7.52139619 135.8818512 12.11309814 C135.88376465 12.99195175 135.8856781 13.87080536 135.88764954 14.77629089 C135.88901005 16.63311042 135.88532294 18.48993949 135.87696838 20.34674072 C135.86625415 23.19550825 135.8768747 26.04364697 135.8896637 28.89239502 C135.88834233 30.69513079 135.88578041 32.49786617 135.8818512 34.30059814 C135.88589966 35.15581558 135.88994812 36.01103302 135.89411926 36.89216614 C135.84615238 42.91051571 135.84615238 42.91051571 133.6162262 45.14044189 C131.20210934 45.38933086 131.20210934 45.38933086 128.10546875 45.38768005 C126.93459717 45.39187454 125.76372559 45.39606903 124.55737305 45.40039062 C123.26638199 45.39477112 121.97539093 45.38915161 120.64527893 45.38336182 C119.27716481 45.3844343 117.90905113 45.38637248 116.54093933 45.38911438 C112.81999024 45.39397079 109.09916067 45.38629752 105.37822604 45.37616134 C101.49093172 45.36739526 97.6036413 45.36913799 93.71633911 45.36952209 C87.18856295 45.36858489 80.66083322 45.35989281 74.1330719 45.34625244 C66.57587085 45.33051975 59.01872064 45.32525453 51.4615044 45.32598799 C44.20317084 45.32659742 36.94485391 45.32150024 29.68652534 45.31319618 C26.59203525 45.30965712 23.49755103 45.30783205 20.40305901 45.30730247 C16.76286952 45.30630112 13.12272306 45.30022162 9.48254776 45.29013634 C7.50155325 45.28580136 5.52054991 45.28638454 3.53955078 45.28707886 C2.37149902 45.28281387 1.20344727 45.27854889 0 45.27415466 C-1.02151437 45.27247882 -2.04302874 45.27080297 -3.09549809 45.26907635 C-5.3837738 45.14044189 -5.3837738 45.14044189 -6.3837738 44.14044189 C-6.48162722 42.79499863 -6.51175365 41.44451627 -6.51316833 40.09552002 C-6.5163205 39.23793091 -6.51947266 38.3803418 -6.52272034 37.49676514 C-6.52069611 36.56449097 -6.51867188 35.6322168 -6.5165863 34.67169189 C-6.51754303 33.72104858 -6.51849976 32.77040527 -6.51948547 31.79095459 C-6.52016737 29.77675307 -6.51831242 27.76254937 -6.5141449 25.74835205 C-6.50879678 22.65373835 -6.51408957 19.5592698 -6.52049255 16.46466064 C-6.51983177 14.51283741 -6.51855061 12.56101426 -6.5165863 10.60919189 C-6.51861053 9.67691772 -6.52063477 8.74464355 -6.52272034 7.78411865 C-6.51956818 6.92652954 -6.51641602 6.06894043 -6.51316833 5.18536377 C-6.51237274 4.42671021 -6.51157715 3.66805664 -6.51075745 2.88641357 C-6.22972159 -0.97771122 -3.20158826 0.00932307 0 0 Z M-3.3837738 3.14044189 C-3.3837738 16.01044189 -3.3837738 28.88044189 -3.3837738 42.14044189 C41.1662262 42.14044189 85.7162262 42.14044189 131.6162262 42.14044189 C131.6162262 29.27044189 131.6162262 16.40044189 131.6162262 3.14044189 C87.0662262 3.14044189 42.5162262 3.14044189 -3.3837738 3.14044189 Z " fill="#030101" transform="translate(70.38377380371094,194.85955810546875)"/>
</svg>
