<?xml version="1.0" encoding="UTF-8"?>
<!-- Generator: visioncortex VTracer 0.6.4 -->
<svg version="1.1" xmlns="http://www.w3.org/2000/svg" width="582" height="594">
<path d="M0 0 C1.27447998 -0.01393799 2.54895996 -0.02787598 3.86206055 -0.04223633 C15.11423514 0.01559809 24.46231086 1.95357476 33.1875 9.375 C42.44442104 19.31911605 43.73972143 30.42634477 43.32373047 43.56494141 C39.37676658 124.97991333 11.45124306 193.31923405 -40.34765625 255.4140625 C-46.47631335 262.77622111 -52.48742024 270.21568596 -58.37915039 277.76782227 C-62.06836058 282.47579426 -65.86515589 287.08731965 -69.6875 291.6875 C-75.0258524 298.11793763 -80.15203714 304.68001513 -85.19433594 311.34423828 C-89.11180765 316.50556124 -93.18426085 321.48792763 -97.3671875 326.4375 C-99.99803657 329.59788099 -102.53696697 332.81799297 -105.0625 336.0625 C-110.42197197 342.93894895 -115.95141688 349.66758922 -121.515625 356.37890625 C-123.50881216 358.78496789 -125.48276837 361.20250392 -127.421875 363.65234375 C-134.48672439 372.53212859 -142.17473217 381.11092517 -153.8125 383.375 C-162.06563373 384.05716959 -169.7857617 384.11980755 -176.8125 379.375 C-184.93563093 372.45976112 -192.05049967 364.41231244 -198.640625 356.05078125 C-201.08058073 353.04472068 -203.67391513 350.2051608 -206.3125 347.375 C-210.61030541 342.75660717 -214.64024777 337.98275277 -218.59765625 333.06640625 C-222.18810806 328.70340573 -225.99309741 324.53751677 -229.8125 320.375 C-233.94387794 323.5994901 -237.2890597 326.99641525 -240.67578125 330.984375 C-243.87187947 334.56026551 -247.29487054 337.90009404 -250.72509766 341.25024414 C-253.04911417 343.53563953 -254.99651352 345.65102028 -256.8125 348.375 C-257.4725 348.375 -258.1325 348.375 -258.8125 348.375 C-259.03679687 348.92671875 -259.26109375 349.4784375 -259.4921875 350.046875 C-261.21635183 353.08711744 -263.43765822 355.18925673 -265.9375 357.625 C-266.84757812 358.51703125 -267.75765625 359.4090625 -268.6953125 360.328125 C-269.74332031 361.34132813 -269.74332031 361.34132813 -270.8125 362.375 C-269.3308074 366.19550783 -267.61659242 369.78606916 -265.71484375 373.41015625 C-262.61348118 380.16333968 -262.82194797 388.79684926 -264.75 395.875 C-268.98913201 406.78683979 -278.58558242 415.58482521 -286.49658203 423.96630859 C-288.1660873 425.75351553 -289.77683703 427.58639037 -291.375 429.4375 C-294.29048029 432.80919237 -297.2932992 436.09638808 -300.3125 439.375 C-303.95420497 443.33086722 -307.54749563 447.32061697 -311.0703125 451.3828125 C-313.12750399 453.73520635 -315.21846915 456.05534966 -317.3125 458.375 C-319.98298344 461.33369751 -322.63548058 464.30426472 -325.25 467.3125 C-328.06072525 470.54059512 -330.928299 473.71238443 -333.8125 476.875 C-340.92812673 484.46183844 -340.92812673 484.46183844 -347.37890625 492.59765625 C-347.85199219 493.18417969 -348.32507813 493.77070313 -348.8125 494.375 C-349.4725 494.375 -350.1325 494.375 -350.8125 494.375 C-351.07281006 494.95822021 -351.33312012 495.54144043 -351.60131836 496.14233398 C-352.89355532 498.52441563 -354.30757654 500.15538979 -356.19140625 502.09765625 C-356.86099365 502.79568359 -357.53058105 503.49371094 -358.22045898 504.21289062 C-359.28695679 505.31407227 -359.28695679 505.31407227 -360.375 506.4375 C-365.79556966 512.10295498 -370.92454038 517.81761179 -375.80078125 523.95703125 C-378.56488847 527.27932711 -381.61257733 530.25748925 -384.703125 533.2734375 C-387.23155211 535.79250007 -389.55078651 538.44614147 -391.875 541.15234375 C-394.2657275 543.89493235 -396.72336986 546.57359764 -399.1875 549.25 C-402.56341046 552.91854663 -405.92315003 556.59922825 -409.25 560.3125 C-409.97574219 561.11429688 -410.70148438 561.91609375 -411.44921875 562.7421875 C-413.18008955 564.6704634 -414.88605571 566.61194075 -416.58203125 568.5703125 C-428.6097663 582.27494339 -443.45195543 592.82507166 -462.14990234 594.59643555 C-483.17130897 595.61894537 -502.10953853 590.92845549 -518.34765625 576.8125 C-529.31729071 565.96455721 -535.10952111 552.38258431 -537.8125 537.375 C-538.039375 536.116875 -538.26625 534.85875 -538.5 533.5625 C-540.234564 515.57582552 -538.16324546 497.38635216 -526.53027344 482.76318359 C-523.14722845 478.78123205 -519.49856081 475.07418625 -515.8125 471.375 C-514.68429498 470.22194177 -513.55669598 469.06829027 -512.4296875 467.9140625 C-508.11715436 463.53111561 -503.81669559 459.20907368 -499.140625 455.2109375 C-493.57955666 450.39373166 -488.47612649 445.108789 -483.3125 439.875 C-472.27243021 428.68491955 -472.27243021 428.68491955 -467.9375 425 C-461.70727793 419.67715386 -456.06952141 413.6976018 -450.3125 407.875 C-436.97290588 394.38344956 -436.97290588 394.38344956 -430.77539062 389.11523438 C-426.4179274 385.25205056 -422.39905607 381.02018672 -418.3125 376.875 C-412.9684249 371.45425237 -407.63184589 366.14147975 -401.84960938 361.18945312 C-397.64942794 357.44835193 -393.75821106 353.38049456 -389.8125 349.375 C-384.56977547 344.05284025 -379.31845783 338.85841343 -373.64404297 333.99707031 C-371.28477764 331.90763298 -369.11931643 329.66793734 -366.9440918 327.38989258 C-359.83446168 319.95946073 -352.5370006 313.41816815 -341.8125 312.375 C-327.83275441 312.06952998 -319.72703457 317.0087172 -309.8671875 326.36328125 C-309.18914062 327.02714844 -308.51109375 327.69101562 -307.8125 328.375 C-304.06751917 324.7185369 -300.58449406 320.9178616 -297.1875 316.9375 C-296.66607422 316.32841797 -296.14464844 315.71933594 -295.60742188 315.09179688 C-291.60018855 310.3771197 -287.75893147 305.5499264 -283.98266602 300.64916992 C-281.55920532 297.52500246 -279.07113945 294.49072285 -276.45703125 291.5234375 C-275.90144531 290.89179688 -275.34585937 290.26015625 -274.7734375 289.609375 C-273.69755935 288.39582524 -272.61324676 287.18968623 -271.51953125 285.9921875 C-268.24009853 282.30817415 -268.24009853 282.30817415 -267.8125 277.375 C-269.19337533 275.6848927 -269.19337533 275.6848927 -271.14453125 274.23828125 C-271.85488525 273.66585693 -272.56523926 273.09343262 -273.29711914 272.50366211 C-274.06531982 271.90432861 -274.83352051 271.30499512 -275.625 270.6875 C-276.40673584 270.06174072 -277.18847168 269.43598145 -277.99389648 268.79125977 C-279.55666816 267.5407521 -281.12310188 266.29480567 -282.69335938 265.05371094 C-285.2800726 263.00460493 -287.82971085 260.91275393 -290.375 258.8125 C-293.46881093 256.27991392 -296.57287988 253.76081399 -299.6875 251.25390625 C-307.25044104 245.15736751 -314.74329099 239.04690851 -321.8125 232.375 C-322.56015625 231.67503906 -323.3078125 230.97507813 -324.078125 230.25390625 C-325.8125 228.375 -325.8125 228.375 -325.8125 226.375 C-339.3425 226.375 -352.8725 226.375 -366.8125 226.375 C-366.80202637 229.3332373 -366.79155273 232.29147461 -366.78076172 235.33935547 C-366.74767795 245.09429432 -366.72555275 254.8492356 -366.70887566 264.60421562 C-366.69842166 270.52084181 -366.68423306 276.4374107 -366.66162109 282.35400391 C-366.63995025 288.05981131 -366.62794356 293.76556347 -366.62274551 299.47140884 C-366.61903938 301.65239456 -366.61180263 303.83337713 -366.60103989 306.01433945 C-366.58660148 309.0602455 -366.58451884 312.10592091 -366.58544922 315.15185547 C-366.57825867 316.06103729 -366.57106812 316.97021912 -366.56365967 317.9069519 C-366.58439568 324.14689568 -366.58439568 324.14689568 -368.8125 326.375 C-371.23817119 326.56213986 -373.54747667 326.63085278 -375.97265625 326.60546875 C-376.67772812 326.60501053 -377.38279999 326.60455231 -378.10923767 326.6040802 C-379.59961632 326.60105863 -381.08999184 326.5931751 -382.58032227 326.58081055 C-384.86941633 326.56254456 -387.15810627 326.56030091 -389.44726562 326.56054688 C-390.89323269 326.55563206 -392.33919699 326.5498039 -393.78515625 326.54296875 C-394.81794456 326.54129951 -394.81794456 326.54129951 -395.87159729 326.53959656 C-400.69644501 326.49105499 -400.69644501 326.49105499 -401.8125 325.375 C-401.90782328 322.30045239 -401.9380138 319.24840842 -401.92602539 316.17358398 C-401.92617142 315.20783447 -401.92631744 314.24208496 -401.9264679 313.24707031 C-401.92576834 310.03838901 -401.91797397 306.82976497 -401.91015625 303.62109375 C-401.90829222 301.40291882 -401.90686825 299.18474348 -401.90586853 296.96656799 C-401.90204216 291.11559929 -401.89221086 285.26465523 -401.88116455 279.41369629 C-401.87095299 273.44832696 -401.86637146 267.48295367 -401.86132812 261.51757812 C-401.85058869 249.80337456 -401.83351085 238.08918933 -401.8125 226.375 C-403.03358963 226.38166183 -404.25467926 226.38832367 -405.51277161 226.39518738 C-417.00511839 226.45593073 -428.49743272 226.50094005 -439.98990345 226.53043652 C-445.8986917 226.54611058 -451.80735064 226.56738073 -457.71606445 226.60131836 C-463.41539981 226.63384954 -469.11461058 226.65183989 -474.8140316 226.65963173 C-476.99141083 226.66518646 -479.16878303 226.6760331 -481.34610939 226.69219017 C-484.38950102 226.71388131 -487.43237393 226.71697039 -490.47583008 226.71557617 C-491.38141663 226.726362 -492.28700317 226.73714783 -493.22003174 226.7482605 C-494.04874283 226.74413651 -494.87745392 226.74001251 -495.73127747 226.73576355 C-496.81115795 226.73991162 -496.81115795 226.73991162 -497.91285419 226.74414349 C-500.40313115 226.26022721 -501.28796086 225.37156036 -502.8125 223.375 C-503.20068359 220.41992188 -503.20068359 220.41992188 -503.2109375 216.84375 C-503.21673828 214.91595703 -503.21673828 214.91595703 -503.22265625 212.94921875 C-503.21637207 212.28067871 -503.21008789 211.61213867 -503.20361328 210.92333984 C-503.18755354 208.8818067 -503.20346671 206.84225292 -503.22265625 204.80078125 C-503.21878906 203.51558594 -503.21492188 202.23039063 -503.2109375 200.90625 C-503.20755371 199.72611328 -503.20416992 198.54597656 -503.20068359 197.33007812 C-502.76522773 194.01513612 -502.38397452 193.36265382 -499.8125 191.375 C-497.91285419 191.00585651 -497.91285419 191.00585651 -495.73127747 191.01423645 C-494.90256638 191.01011246 -494.07385529 191.00598846 -493.22003174 191.0017395 C-492.31444519 191.01252533 -491.40885864 191.02331116 -490.47583008 191.03442383 C-489.51954208 191.03398575 -488.56325409 191.03354767 -487.57798767 191.03309631 C-484.41246223 191.0351888 -481.24746433 191.05854184 -478.08203125 191.08203125 C-475.88913767 191.08762556 -473.69624034 191.09189644 -471.50334167 191.09489441 C-465.72793246 191.10635613 -459.9527491 191.13583489 -454.1774292 191.16900635 C-448.28563492 191.19967854 -442.3938042 191.21339365 -436.50195312 191.22851562 C-424.93870278 191.26070319 -413.37562016 191.31191569 -401.8125 191.375 C-401.81472061 190.13694107 -401.81694122 188.89888214 -401.81922913 187.62330627 C-401.83945854 175.98314778 -401.85447117 164.34299283 -401.86431217 152.70282078 C-401.86954151 146.71780734 -401.87664008 140.73280804 -401.88793945 134.74780273 C-401.89876653 128.97716571 -401.90477645 123.20654232 -401.90737724 117.43589592 C-401.90923182 115.22897057 -401.91285304 113.022046 -401.91823006 110.81512642 C-401.9254381 107.73553959 -401.92649104 104.65600986 -401.92602539 101.57641602 C-401.92962067 100.65428818 -401.93321594 99.73216034 -401.93692017 98.78208923 C-401.92655216 92.48905216 -401.92655216 92.48905216 -400.8125 91.375 C-398.46021681 91.26182716 -396.13838052 91.21083463 -393.78515625 91.20703125 C-392.72898354 91.20203865 -392.72898354 91.20203865 -391.651474 91.19694519 C-390.15933894 91.19187345 -388.6671925 91.18953694 -387.17504883 91.18969727 C-384.88799393 91.18751241 -382.60142247 91.16936451 -380.31445312 91.15039062 C-378.86718916 91.14745646 -377.41992289 91.14547182 -375.97265625 91.14453125 C-375.28615494 91.13734573 -374.59965363 91.13016022 -373.89234924 91.12275696 C-369.04132369 91.14617631 -369.04132369 91.14617631 -366.8125 93.375 C-366.62401528 96.47917418 -366.56089546 99.49353901 -366.58544922 102.59814453 C-366.58515717 103.5542865 -366.58486511 104.51042847 -366.58456421 105.49554443 C-366.58596124 108.66639172 -366.60154001 111.83700609 -366.6171875 115.0078125 C-366.6209163 117.20213696 -366.6237639 119.39646308 -366.62576294 121.59078979 C-366.63340985 127.37437514 -366.65306741 133.15786049 -366.6751709 138.94140625 C-366.69560657 144.83982999 -366.70475977 150.73826984 -366.71484375 156.63671875 C-366.73631231 168.21618984 -366.77046098 179.79558661 -366.8125 191.375 C-361.31572939 191.55496408 -355.82660492 191.64702059 -350.3269043 191.66186523 C-348.46163535 191.67877976 -346.59641496 191.7186636 -344.73217773 191.78295898 C-333.21919415 192.48970212 -333.21919415 192.48970212 -323.30169678 187.63447571 C-320.43139954 184.45921319 -318.14930114 180.95288961 -315.8125 177.375 C-314.64939402 176.06052605 -313.45064128 174.77531169 -312.19628906 173.54760742 C-311.67915344 173.03385056 -311.16201782 172.52009369 -310.62921143 171.99076843 C-310.11735291 171.49236954 -309.60549438 170.99397064 -309.078125 170.48046875 C-308.22743439 169.63758049 -308.22743439 169.63758049 -307.35955811 168.77766418 C-305.59876879 167.03422771 -303.83127393 165.29783175 -302.0625 163.5625 C-299.71008354 161.24697036 -297.36110304 158.9280262 -295.015625 156.60546875 C-294.45950531 156.05525558 -293.90338562 155.50504242 -293.33041382 154.93815613 C-289.83590954 151.45828634 -286.54314228 147.86630229 -283.34765625 144.1081543 C-280.66723821 141.08202712 -277.67815306 138.40139538 -274.6875 135.6875 C-269.63501575 131.04380709 -264.69601933 126.32112997 -259.875 121.4375 C-255.97958868 117.50020253 -252.04942965 113.69291197 -247.82421875 110.10546875 C-245.32966397 107.95966726 -242.92031018 105.72914323 -240.5 103.5 C-236.00751362 99.40300073 -231.39342718 95.51379574 -226.66015625 91.69921875 C-224.21300905 89.7018901 -221.81567801 87.65871812 -219.4284668 85.59057617 C-207.20149025 75.03921231 -194.07170022 65.57722787 -180.8125 56.375 C-180.22170654 55.95879395 -179.63091309 55.54258789 -179.0222168 55.11376953 C-126.67050433 18.28172102 -63.67654601 0.41203092 0 0 Z M-91.8125 53.375 C-92.47556152 53.5920459 -93.13862305 53.8090918 -93.82177734 54.03271484 C-134.38946849 67.53452251 -169.81838856 93.64677008 -201.8125 121.375 C-202.54597656 122.00792969 -203.27945313 122.64085938 -204.03515625 123.29296875 C-208.52957394 127.19766166 -212.9458038 131.18839854 -217.36328125 135.1796875 C-219.55549214 137.1446357 -221.77097701 139.07709042 -224 141 C-227.12331961 143.71647437 -230.04061782 146.57772509 -232.93737793 149.53231812 C-234.74791892 151.31153619 -236.61595507 152.96651816 -238.54492188 154.61572266 C-242.73133812 158.25727041 -246.67748777 162.09513979 -250.59375 166.0234375 C-251.29270386 166.72143463 -251.99165771 167.41943176 -252.71179199 168.13858032 C-254.17171926 169.5978328 -255.63040748 171.05832588 -257.08789062 172.52001953 C-259.33088644 174.76843083 -261.57924786 177.01137911 -263.828125 179.25390625 C-265.25032126 180.6767623 -266.67220782 182.09992798 -268.09375 183.5234375 C-269.10604675 184.53269791 -269.10604675 184.53269791 -270.13879395 185.56234741 C-270.75363647 186.1803421 -271.368479 186.79833679 -272.00195312 187.43505859 C-272.54630005 187.98020111 -273.09064697 188.52534363 -273.65148926 189.08700562 C-274.92409051 190.2097898 -274.92409051 190.2097898 -274.8125 191.375 C-272.5025 192.035 -270.1925 192.695 -267.8125 193.375 C-267.76311851 197.75323917 -267.7267896 202.13133146 -267.70263672 206.50976562 C-267.69256957 207.9997032 -267.67891482 209.48962097 -267.66162109 210.97949219 C-267.63740347 213.11919028 -267.62602436 215.25862753 -267.6171875 217.3984375 C-267.60671387 218.68669434 -267.59624023 219.97495117 -267.58544922 221.30224609 C-267.8125 224.375 -267.8125 224.375 -269.8125 226.375 C-269.03648437 227.02984375 -268.26046875 227.6846875 -267.4609375 228.359375 C-266.94595703 228.79451416 -266.43097656 229.22965332 -265.90039062 229.67797852 C-264.74605089 230.65314551 -263.59108959 231.62757716 -262.43554688 232.60131836 C-259.26813241 235.27584435 -256.12202555 237.97066322 -253.0078125 240.70703125 C-252.38986816 241.24682617 -251.77192383 241.78662109 -251.13525391 242.34277344 C-249.94265848 243.38617463 -248.75462287 244.43481656 -247.57177734 245.48925781 C-244.47651745 248.18796873 -241.74600177 250.13477276 -237.8125 251.375 C-236.86503906 250.37533203 -236.86503906 250.37533203 -235.8984375 249.35546875 C-230.29696542 243.58449968 -224.54067052 238.40399209 -218.15893555 233.51147461 C-214.00458762 230.32607742 -209.9755877 227.0306424 -206 223.625 C-201.86963771 220.0951622 -197.68620981 216.67275136 -193.37109375 213.37109375 C-189.89041822 210.65563544 -186.48065212 207.85600095 -183.0625 205.0625 C-177.13420434 200.22504382 -171.13715851 195.50086161 -165.0546875 190.859375 C-161.44852174 188.10525211 -157.87890622 185.30532295 -154.3125 182.5 C-153.73677246 182.04737793 -153.16104492 181.59475586 -152.56787109 181.12841797 C-150.05403517 179.14940932 -147.55518981 177.16131424 -145.09375 175.1171875 C-140.95642462 171.95751778 -136.82089678 172.00496381 -131.8125 172.375 C-128.77717738 172.91534381 -125.79632701 173.60141522 -122.8125 174.375 C-121.45404339 185.46220145 -122.39192212 192.59716753 -129.19213867 201.62182617 C-130.21561152 202.92785983 -131.25115517 204.22452851 -132.29882812 205.51123047 C-133.72820564 207.27120917 -135.09858125 209.06099308 -136.453125 210.87890625 C-141.69032451 217.88293335 -147.2417898 224.63512839 -152.8125 231.375 C-154.31349484 233.20751892 -155.81349052 235.04085669 -157.3125 236.875 C-158.05757813 237.78507813 -158.80265625 238.69515625 -159.5703125 239.6328125 C-161.0465486 241.43824411 -162.52056736 243.24549141 -163.9921875 245.0546875 C-167.55384425 249.42754009 -171.14062874 253.77330695 -174.80151367 258.06323242 C-179.5842685 263.66824701 -184.20897712 269.36771219 -188.7331543 275.18334961 C-193.29145658 281.02827611 -198.03088182 286.71173855 -202.8125 292.375 C-198.90588479 297.85958135 -194.62869365 302.85098932 -190.08984375 307.8203125 C-187.27402451 310.97905312 -184.66963374 314.27554477 -182.05078125 317.59765625 C-177.9248575 322.71725797 -173.60112014 327.67027892 -169.30371094 332.64599609 C-166.79949894 335.54953724 -164.30617523 338.46240935 -161.8125 341.375 C-155.16919509 336.17589181 -150.0723954 329.91455399 -144.8125 323.375 C-144.13058594 322.53582031 -143.44867188 321.69664062 -142.74609375 320.83203125 C-139.13363252 316.35841764 -135.61529069 311.81941439 -132.125 307.25 C-127.76008668 301.53791222 -123.24897602 295.95465334 -118.70043945 290.38818359 C-115.1899244 286.0866318 -111.72872066 281.75173959 -108.3125 277.375 C-103.8306114 271.63480746 -99.25293222 265.97806483 -94.6484375 260.3359375 C-91.15719917 256.05048382 -87.71431112 251.73170547 -84.3125 247.375 C-80.37054715 242.32653407 -76.3620608 237.33753972 -72.3125 232.375 C-66.83193259 225.6544633 -61.43206153 218.87728223 -56.10791016 212.03222656 C-54.84566706 210.41743083 -53.57083648 208.81338264 -52.29296875 207.2109375 C-17.05230004 162.72227559 4.52629155 101.29198098 4.1875 44.375 C3.5166624 41.3206948 3.5166624 41.3206948 1.37939453 40.20629883 C-2.33892203 38.79608855 -6.00001438 39.03727611 -9.9375 39.0625 C-10.85619873 39.06741455 -11.77489746 39.0723291 -12.72143555 39.07739258 C-39.6317953 39.51567205 -66.33191798 44.90011926 -91.8125 53.375 Z M-338.8125 355.375 C-339.55822266 356.12595947 -340.30394531 356.87691895 -341.07226562 357.65063477 C-343.87269739 360.4693374 -346.67657745 363.28458919 -349.48144531 366.09887695 C-350.68875065 367.31117248 -351.89515234 368.5243687 -353.10058594 369.73852539 C-358.84245082 375.52085947 -364.54641945 381.25472924 -370.75585938 386.53881836 C-375.65721308 390.91477767 -380.19761024 395.7002876 -384.8125 400.375 C-396.38389385 412.0963934 -396.38389385 412.0963934 -400.71875 415.78125 C-406.94073246 421.09050362 -412.56614607 427.06318719 -418.3125 432.875 C-431.56496337 446.27842716 -431.56496337 446.27842716 -437.75585938 451.54101562 C-442.65930225 455.91360144 -447.19810458 460.70078834 -451.8125 465.375 C-463.59871584 477.31400012 -463.59871584 477.31400012 -469.82373047 482.63525391 C-473.99383477 486.28319931 -477.92589602 490.17886722 -481.875 494.0625 C-482.73416016 494.88427734 -483.59332031 495.70605469 -484.47851562 496.55273438 C-492.17679478 504.14515484 -500.72151298 514.33695575 -500.8359375 525.703125 C-500.24405375 535.85860409 -496.08360527 543.38903611 -488.8125 550.375 C-483.34376422 554.6160604 -478.03726342 556.92023905 -471.0078125 556.6796875 C-456.52188877 554.66918563 -445.93835276 542.23547025 -436.89453125 531.7421875 C-434.25203651 528.7377751 -431.5341141 525.80764387 -428.8125 522.875 C-423.93852365 517.61396383 -419.15973328 512.29110112 -414.49951172 506.83886719 C-407.55081465 498.71246392 -400.46858147 490.7569038 -393.1015625 483.00585938 C-389.46073843 479.16942086 -385.93156005 475.2594028 -382.46435547 471.26538086 C-380.1270089 468.59052504 -377.72309656 465.98411627 -375.3125 463.375 C-372.27281004 460.07547223 -369.25091941 456.76548393 -366.3125 453.375 C-363.37405935 449.98449156 -360.35133698 446.67533018 -357.3125 443.375 C-353.67082111 439.41910817 -350.077505 435.42938376 -346.5546875 431.3671875 C-343.73665576 428.14477453 -340.85698387 424.97805021 -337.98828125 421.80078125 C-336.13806437 419.73797212 -334.31305191 417.6578763 -332.5 415.5625 C-329.34172281 411.93305791 -326.08277438 408.40309684 -322.8125 404.875 C-317.71784277 399.37308757 -317.71784277 399.37308757 -312.6875 393.8125 C-312.16929687 393.23371094 -311.65109375 392.65492188 -311.1171875 392.05859375 C-309.72123388 390.25722846 -308.76217057 388.44166404 -307.8125 386.375 C-308.23660156 385.9625 -308.66070312 385.55 -309.09765625 385.125 C-312.13786427 382.13156441 -315.09311947 379.1110651 -317.875 375.875 C-321.52559296 371.65635138 -325.28123267 367.53882098 -329.0625 363.4375 C-329.67746338 362.76203125 -330.29242676 362.0865625 -330.92602539 361.390625 C-331.51246826 360.75769531 -332.09891113 360.12476563 -332.703125 359.47265625 C-333.22938477 358.90039307 -333.75564453 358.32812988 -334.29785156 357.73852539 C-335.88197357 356.12978676 -335.88197357 356.12978676 -338.8125 355.375 Z " fill="#FEFEFE" transform="translate(538.8125,-0.37500000000000006)"/>
<path d="M0 0 C1.27447998 -0.01393799 2.54895996 -0.02787598 3.86206055 -0.04223633 C15.11423514 0.01559809 24.46231086 1.95357476 33.1875 9.375 C42.44442104 19.31911605 43.73972143 30.42634477 43.32373047 43.56494141 C39.37676658 124.97991333 11.45124306 193.31923405 -40.34765625 255.4140625 C-46.47631335 262.77622111 -52.48742024 270.21568596 -58.37915039 277.76782227 C-62.06836058 282.47579426 -65.86515589 287.08731965 -69.6875 291.6875 C-75.0258524 298.11793763 -80.15203714 304.68001513 -85.19433594 311.34423828 C-89.11180765 316.50556124 -93.18426085 321.48792763 -97.3671875 326.4375 C-99.99803657 329.59788099 -102.53696697 332.81799297 -105.0625 336.0625 C-110.42197197 342.93894895 -115.95141688 349.66758922 -121.515625 356.37890625 C-123.50881216 358.78496789 -125.48276837 361.20250392 -127.421875 363.65234375 C-134.48672439 372.53212859 -142.17473217 381.11092517 -153.8125 383.375 C-162.06563373 384.05716959 -169.7857617 384.11980755 -176.8125 379.375 C-184.93563093 372.45976112 -192.05049967 364.41231244 -198.640625 356.05078125 C-201.08058073 353.04472068 -203.67391513 350.2051608 -206.3125 347.375 C-210.61030541 342.75660717 -214.64024777 337.98275277 -218.59765625 333.06640625 C-222.18810806 328.70340573 -225.99309741 324.53751677 -229.8125 320.375 C-233.94387794 323.5994901 -237.2890597 326.99641525 -240.67578125 330.984375 C-243.87187947 334.56026551 -247.29487054 337.90009404 -250.72509766 341.25024414 C-253.04911417 343.53563953 -254.99651352 345.65102028 -256.8125 348.375 C-257.4725 348.375 -258.1325 348.375 -258.8125 348.375 C-259.03679687 348.92671875 -259.26109375 349.4784375 -259.4921875 350.046875 C-261.21635183 353.08711744 -263.43765822 355.18925673 -265.9375 357.625 C-266.84757812 358.51703125 -267.75765625 359.4090625 -268.6953125 360.328125 C-269.74332031 361.34132813 -269.74332031 361.34132813 -270.8125 362.375 C-269.3308074 366.19550783 -267.61659242 369.78606916 -265.71484375 373.41015625 C-262.61348118 380.16333968 -262.82194797 388.79684926 -264.75 395.875 C-268.98913201 406.78683979 -278.58558242 415.58482521 -286.49658203 423.96630859 C-288.1660873 425.75351553 -289.77683703 427.58639037 -291.375 429.4375 C-294.29048029 432.80919237 -297.2932992 436.09638808 -300.3125 439.375 C-303.95420497 443.33086722 -307.54749563 447.32061697 -311.0703125 451.3828125 C-313.12750399 453.73520635 -315.21846915 456.05534966 -317.3125 458.375 C-319.98298344 461.33369751 -322.63548058 464.30426472 -325.25 467.3125 C-328.06072525 470.54059512 -330.928299 473.71238443 -333.8125 476.875 C-340.92812673 484.46183844 -340.92812673 484.46183844 -347.37890625 492.59765625 C-347.85199219 493.18417969 -348.32507813 493.77070313 -348.8125 494.375 C-349.4725 494.375 -350.1325 494.375 -350.8125 494.375 C-351.07281006 494.95822021 -351.33312012 495.54144043 -351.60131836 496.14233398 C-352.89355532 498.52441563 -354.30757654 500.15538979 -356.19140625 502.09765625 C-356.86099365 502.79568359 -357.53058105 503.49371094 -358.22045898 504.21289062 C-359.28695679 505.31407227 -359.28695679 505.31407227 -360.375 506.4375 C-365.79556966 512.10295498 -370.92454038 517.81761179 -375.80078125 523.95703125 C-378.56488847 527.27932711 -381.61257733 530.25748925 -384.703125 533.2734375 C-387.23155211 535.79250007 -389.55078651 538.44614147 -391.875 541.15234375 C-394.2657275 543.89493235 -396.72336986 546.57359764 -399.1875 549.25 C-402.56341046 552.91854663 -405.92315003 556.59922825 -409.25 560.3125 C-409.97574219 561.11429688 -410.70148438 561.91609375 -411.44921875 562.7421875 C-413.18008955 564.6704634 -414.88605571 566.61194075 -416.58203125 568.5703125 C-428.6097663 582.27494339 -443.45195543 592.82507166 -462.14990234 594.59643555 C-483.17130897 595.61894537 -502.10953853 590.92845549 -518.34765625 576.8125 C-529.31729071 565.96455721 -535.10952111 552.38258431 -537.8125 537.375 C-538.039375 536.116875 -538.26625 534.85875 -538.5 533.5625 C-540.234564 515.57582552 -538.16324546 497.38635216 -526.53027344 482.76318359 C-523.14722845 478.78123205 -519.49856081 475.07418625 -515.8125 471.375 C-514.68429498 470.22194177 -513.55669598 469.06829027 -512.4296875 467.9140625 C-508.11715436 463.53111561 -503.81669559 459.20907368 -499.140625 455.2109375 C-493.57955666 450.39373166 -488.47612649 445.108789 -483.3125 439.875 C-472.27243021 428.68491955 -472.27243021 428.68491955 -467.9375 425 C-461.70727793 419.67715386 -456.06952141 413.6976018 -450.3125 407.875 C-436.97290588 394.38344956 -436.97290588 394.38344956 -430.77539062 389.11523438 C-426.4179274 385.25205056 -422.39905607 381.02018672 -418.3125 376.875 C-412.9684249 371.45425237 -407.63184589 366.14147975 -401.84960938 361.18945312 C-397.64942794 357.44835193 -393.75821106 353.38049456 -389.8125 349.375 C-384.56977547 344.05284025 -379.31845783 338.85841343 -373.64404297 333.99707031 C-371.28477764 331.90763298 -369.11931643 329.66793734 -366.9440918 327.38989258 C-359.83446168 319.95946073 -352.5370006 313.41816815 -341.8125 312.375 C-327.83275441 312.06952998 -319.72703457 317.0087172 -309.8671875 326.36328125 C-309.18914062 327.02714844 -308.51109375 327.69101562 -307.8125 328.375 C-304.06751917 324.7185369 -300.58449406 320.9178616 -297.1875 316.9375 C-296.66607422 316.32841797 -296.14464844 315.71933594 -295.60742188 315.09179688 C-291.60018855 310.3771197 -287.75893147 305.5499264 -283.98266602 300.64916992 C-281.55920532 297.52500246 -279.07113945 294.49072285 -276.45703125 291.5234375 C-275.90144531 290.89179688 -275.34585937 290.26015625 -274.7734375 289.609375 C-273.69755935 288.39582524 -272.61324676 287.18968623 -271.51953125 285.9921875 C-268.24009853 282.30817415 -268.24009853 282.30817415 -267.8125 277.375 C-269.19337533 275.6848927 -269.19337533 275.6848927 -271.14453125 274.23828125 C-271.85488525 273.66585693 -272.56523926 273.09343262 -273.29711914 272.50366211 C-274.06531982 271.90432861 -274.83352051 271.30499512 -275.625 270.6875 C-276.40673584 270.06174072 -277.18847168 269.43598145 -277.99389648 268.79125977 C-279.55666816 267.5407521 -281.12310188 266.29480567 -282.69335938 265.05371094 C-285.2800726 263.00460493 -287.82971085 260.91275393 -290.375 258.8125 C-293.46881093 256.27991392 -296.57287988 253.76081399 -299.6875 251.25390625 C-307.25044104 245.15736751 -314.74329099 239.04690851 -321.8125 232.375 C-322.56015625 231.67503906 -323.3078125 230.97507813 -324.078125 230.25390625 C-325.8125 228.375 -325.8125 228.375 -325.8125 226.375 C-339.3425 226.375 -352.8725 226.375 -366.8125 226.375 C-366.80202637 229.3332373 -366.79155273 232.29147461 -366.78076172 235.33935547 C-366.74767795 245.09429432 -366.72555275 254.8492356 -366.70887566 264.60421562 C-366.69842166 270.52084181 -366.68423306 276.4374107 -366.66162109 282.35400391 C-366.63995025 288.05981131 -366.62794356 293.76556347 -366.62274551 299.47140884 C-366.61903938 301.65239456 -366.61180263 303.83337713 -366.60103989 306.01433945 C-366.58660148 309.0602455 -366.58451884 312.10592091 -366.58544922 315.15185547 C-366.57825867 316.06103729 -366.57106812 316.97021912 -366.56365967 317.9069519 C-366.58439568 324.14689568 -366.58439568 324.14689568 -368.8125 326.375 C-371.23817119 326.56213986 -373.54747667 326.63085278 -375.97265625 326.60546875 C-376.67772812 326.60501053 -377.38279999 326.60455231 -378.10923767 326.6040802 C-379.59961632 326.60105863 -381.08999184 326.5931751 -382.58032227 326.58081055 C-384.86941633 326.56254456 -387.15810627 326.56030091 -389.44726562 326.56054688 C-390.89323269 326.55563206 -392.33919699 326.5498039 -393.78515625 326.54296875 C-394.81794456 326.54129951 -394.81794456 326.54129951 -395.87159729 326.53959656 C-400.69644501 326.49105499 -400.69644501 326.49105499 -401.8125 325.375 C-401.90782328 322.30045239 -401.9380138 319.24840842 -401.92602539 316.17358398 C-401.92617142 315.20783447 -401.92631744 314.24208496 -401.9264679 313.24707031 C-401.92576834 310.03838901 -401.91797397 306.82976497 -401.91015625 303.62109375 C-401.90829222 301.40291882 -401.90686825 299.18474348 -401.90586853 296.96656799 C-401.90204216 291.11559929 -401.89221086 285.26465523 -401.88116455 279.41369629 C-401.87095299 273.44832696 -401.86637146 267.48295367 -401.86132812 261.51757812 C-401.85058869 249.80337456 -401.83351085 238.08918933 -401.8125 226.375 C-403.03358963 226.38166183 -404.25467926 226.38832367 -405.51277161 226.39518738 C-417.00511839 226.45593073 -428.49743272 226.50094005 -439.98990345 226.53043652 C-445.8986917 226.54611058 -451.80735064 226.56738073 -457.71606445 226.60131836 C-463.41539981 226.63384954 -469.11461058 226.65183989 -474.8140316 226.65963173 C-476.99141083 226.66518646 -479.16878303 226.6760331 -481.34610939 226.69219017 C-484.38950102 226.71388131 -487.43237393 226.71697039 -490.47583008 226.71557617 C-491.38141663 226.726362 -492.28700317 226.73714783 -493.22003174 226.7482605 C-494.04874283 226.74413651 -494.87745392 226.74001251 -495.73127747 226.73576355 C-496.81115795 226.73991162 -496.81115795 226.73991162 -497.91285419 226.74414349 C-500.40313115 226.26022721 -501.28796086 225.37156036 -502.8125 223.375 C-503.20068359 220.41992188 -503.20068359 220.41992188 -503.2109375 216.84375 C-503.21673828 214.91595703 -503.21673828 214.91595703 -503.22265625 212.94921875 C-503.21637207 212.28067871 -503.21008789 211.61213867 -503.20361328 210.92333984 C-503.18755354 208.8818067 -503.20346671 206.84225292 -503.22265625 204.80078125 C-503.21878906 203.51558594 -503.21492188 202.23039063 -503.2109375 200.90625 C-503.20755371 199.72611328 -503.20416992 198.54597656 -503.20068359 197.33007812 C-502.76522773 194.01513612 -502.38397452 193.36265382 -499.8125 191.375 C-497.91285419 191.00585651 -497.91285419 191.00585651 -495.73127747 191.01423645 C-494.90256638 191.01011246 -494.07385529 191.00598846 -493.22003174 191.0017395 C-492.31444519 191.01252533 -491.40885864 191.02331116 -490.47583008 191.03442383 C-489.51954208 191.03398575 -488.56325409 191.03354767 -487.57798767 191.03309631 C-484.41246223 191.0351888 -481.24746433 191.05854184 -478.08203125 191.08203125 C-475.88913767 191.08762556 -473.69624034 191.09189644 -471.50334167 191.09489441 C-465.72793246 191.10635613 -459.9527491 191.13583489 -454.1774292 191.16900635 C-448.28563492 191.19967854 -442.3938042 191.21339365 -436.50195312 191.22851562 C-424.93870278 191.26070319 -413.37562016 191.31191569 -401.8125 191.375 C-401.81472061 190.13694107 -401.81694122 188.89888214 -401.81922913 187.62330627 C-401.83945854 175.98314778 -401.85447117 164.34299283 -401.86431217 152.70282078 C-401.86954151 146.71780734 -401.87664008 140.73280804 -401.88793945 134.74780273 C-401.89876653 128.97716571 -401.90477645 123.20654232 -401.90737724 117.43589592 C-401.90923182 115.22897057 -401.91285304 113.022046 -401.91823006 110.81512642 C-401.9254381 107.73553959 -401.92649104 104.65600986 -401.92602539 101.57641602 C-401.92962067 100.65428818 -401.93321594 99.73216034 -401.93692017 98.78208923 C-401.92655216 92.48905216 -401.92655216 92.48905216 -400.8125 91.375 C-398.46021681 91.26182716 -396.13838052 91.21083463 -393.78515625 91.20703125 C-392.72898354 91.20203865 -392.72898354 91.20203865 -391.651474 91.19694519 C-390.15933894 91.19187345 -388.6671925 91.18953694 -387.17504883 91.18969727 C-384.88799393 91.18751241 -382.60142247 91.16936451 -380.31445312 91.15039062 C-378.86718916 91.14745646 -377.41992289 91.14547182 -375.97265625 91.14453125 C-375.28615494 91.13734573 -374.59965363 91.13016022 -373.89234924 91.12275696 C-369.04132369 91.14617631 -369.04132369 91.14617631 -366.8125 93.375 C-366.62401528 96.47917418 -366.56089546 99.49353901 -366.58544922 102.59814453 C-366.58515717 103.5542865 -366.58486511 104.51042847 -366.58456421 105.49554443 C-366.58596124 108.66639172 -366.60154001 111.83700609 -366.6171875 115.0078125 C-366.6209163 117.20213696 -366.6237639 119.39646308 -366.62576294 121.59078979 C-366.63340985 127.37437514 -366.65306741 133.15786049 -366.6751709 138.94140625 C-366.69560657 144.83982999 -366.70475977 150.73826984 -366.71484375 156.63671875 C-366.73631231 168.21618984 -366.77046098 179.79558661 -366.8125 191.375 C-361.31572939 191.55496408 -355.82660492 191.64702059 -350.3269043 191.66186523 C-348.46163535 191.67877976 -346.59641496 191.7186636 -344.73217773 191.78295898 C-333.21919415 192.48970212 -333.21919415 192.48970212 -323.30169678 187.63447571 C-320.43139954 184.45921319 -318.14930114 180.95288961 -315.8125 177.375 C-314.64939402 176.06052605 -313.45064128 174.77531169 -312.19628906 173.54760742 C-311.67915344 173.03385056 -311.16201782 172.52009369 -310.62921143 171.99076843 C-310.11735291 171.49236954 -309.60549438 170.99397064 -309.078125 170.48046875 C-308.22743439 169.63758049 -308.22743439 169.63758049 -307.35955811 168.77766418 C-305.59876879 167.03422771 -303.83127393 165.29783175 -302.0625 163.5625 C-299.71008354 161.24697036 -297.36110304 158.9280262 -295.015625 156.60546875 C-294.45950531 156.05525558 -293.90338562 155.50504242 -293.33041382 154.93815613 C-289.83590954 151.45828634 -286.54314228 147.86630229 -283.34765625 144.1081543 C-280.66723821 141.08202712 -277.67815306 138.40139538 -274.6875 135.6875 C-269.63501575 131.04380709 -264.69601933 126.32112997 -259.875 121.4375 C-255.97958868 117.50020253 -252.04942965 113.69291197 -247.82421875 110.10546875 C-245.32966397 107.95966726 -242.92031018 105.72914323 -240.5 103.5 C-236.00751362 99.40300073 -231.39342718 95.51379574 -226.66015625 91.69921875 C-224.21300905 89.7018901 -221.81567801 87.65871812 -219.4284668 85.59057617 C-207.20149025 75.03921231 -194.07170022 65.57722787 -180.8125 56.375 C-180.22170654 55.95879395 -179.63091309 55.54258789 -179.0222168 55.11376953 C-126.67050433 18.28172102 -63.67654601 0.41203092 0 0 Z M-178.8125 59.375 C-179.53139404 59.88458252 -180.25028809 60.39416504 -180.9909668 60.91918945 C-197.30158622 72.48414392 -213.04878979 84.59473194 -228.04199219 97.82666016 C-229.76567682 99.33405232 -231.50661692 100.81767379 -233.2578125 102.29296875 C-246.04012509 113.06535781 -258.19165167 124.52805362 -269.87915039 136.47827148 C-273.60983463 140.27366732 -273.60983463 140.27366732 -275.8125 141.375 C-275.8125 142.035 -275.8125 142.695 -275.8125 143.375 C-276.8025 143.705 -277.7925 144.035 -278.8125 144.375 C-278.8125 145.035 -278.8125 145.695 -278.8125 146.375 C-279.8025 146.705 -280.7925 147.035 -281.8125 147.375 C-281.8125 148.035 -281.8125 148.695 -281.8125 149.375 C-282.8025 149.705 -283.7925 150.035 -284.8125 150.375 C-286.26746198 151.81027805 -286.26746198 151.81027805 -287.7109375 153.6484375 C-290.90960124 157.41859135 -294.28295783 160.93413974 -297.7890625 164.4140625 C-298.32593689 164.94763367 -298.86281128 165.48120483 -299.41595459 166.03094482 C-301.08785644 167.68927655 -302.76223868 169.34506248 -304.4375 171 C-306.66184382 173.19752912 -308.8826921 175.39850843 -311.1015625 177.6015625 C-311.60064117 178.09234283 -312.09971985 178.58312317 -312.61392212 179.08877563 C-315.91317384 182.36520624 -318.96596193 185.70349122 -321.8125 189.375 C-321.8125 190.035 -321.8125 190.695 -321.8125 191.375 C-307.65523064 194.24916187 -289.88540887 197.38006329 -276.85308838 189.61071777 C-263.81521895 180.04092542 -253.1446572 167.27602222 -242.81787109 154.93334961 C-239.67296223 151.23205446 -236.34454367 148.01371155 -232.61343384 144.90870667 C-230.74394431 143.31661678 -229.02794108 141.63087576 -227.3125 139.875 C-224.32506076 136.84035517 -221.19838967 134.03213908 -217.97265625 131.25390625 C-215.5934369 129.18445868 -213.26692918 127.06278515 -210.9375 124.9375 C-206.9619108 121.3534461 -202.88593259 117.96099448 -198.6796875 114.65234375 C-196.5187474 112.93595672 -194.38277943 111.20133784 -192.2578125 109.44140625 C-162.78002062 85.07384268 -130.27853074 63.59681811 -93.8125 51.375 C-93.00039063 51.10107422 -92.18828125 50.82714844 -91.3515625 50.54492188 C-65.11569248 41.84852726 -37.57738295 37.18525449 -9.9375 37.0625 C-8.87926025 37.05694092 -7.82102051 37.05138184 -6.73071289 37.0456543 C1.81595543 37.12777306 1.81595543 37.12777306 5.1875 39.375 C8.24970523 48.56161568 5.7522774 59.75436866 4.5 69.125 C4.36653671 70.1354538 4.36653671 70.1354538 4.2303772 71.1663208 C0.42861206 99.73693253 -6.10473894 127.95802418 -17.8125 154.375 C-18.18745605 155.22513672 -18.56241211 156.07527344 -18.94873047 156.95117188 C-29.47515727 180.53808407 -43.15908915 200.82456399 -59.5859375 220.65625 C-62.12485955 223.75640745 -64.59650447 226.9042875 -67.0625 230.0625 C-71.08840148 235.2146023 -75.17817126 240.30953262 -79.3125 245.375 C-83.36228432 250.33735316 -87.37055119 255.32653924 -91.3125 260.375 C-95.25445046 265.42346287 -99.26280922 270.41256894 -103.3125 275.375 C-107.84004072 280.92418059 -112.30765862 286.51415637 -116.71875 292.15625 C-120.55069553 297.05447603 -124.43382943 301.91029685 -128.32568359 306.76098633 C-131.74492967 311.02756259 -135.1301674 315.31933298 -138.5 319.625 C-152.52193849 337.49106003 -152.52193849 337.49106003 -160.8125 345.375 C-164.52813534 344.13645489 -165.40708591 342.68482822 -167.8125 339.625 C-168.6065625 338.62984375 -169.400625 337.6346875 -170.21875 336.609375 C-170.64027344 336.08021484 -171.06179688 335.55105469 -171.49609375 335.00585938 C-173.71807931 332.25310278 -176.01725759 329.56669337 -178.3125 326.875 C-182.42679746 322.03515215 -186.47167478 317.14524014 -190.47265625 312.2109375 C-192.20757207 310.10818477 -193.96057602 308.03548582 -195.74609375 305.9765625 C-196.24496094 305.39841797 -196.74382812 304.82027344 -197.2578125 304.22460938 C-198.22750316 303.10388052 -199.20249387 301.9877079 -200.18359375 300.87695312 C-202.78525822 297.86310635 -204.58600738 295.17362286 -205.8125 291.375 C-205.0390625 290.48039062 -204.265625 289.58578125 -203.46875 288.6640625 C-198.11374035 282.45376875 -192.81676999 276.21990077 -187.7265625 269.7890625 C-182.86897632 263.66255585 -177.89603224 257.63250207 -172.8215332 251.68481445 C-168.05032802 246.09217758 -163.43938465 240.40595736 -158.93359375 234.59741211 C-155.87507918 230.67300434 -152.69610232 226.88379276 -149.4375 223.125 C-143.26901793 215.96361904 -137.74479648 208.32213486 -132.34765625 200.56811523 C-131.28844793 199.05493643 -130.20610937 197.55777762 -129.10546875 196.07446289 C-125.72175792 191.36549857 -124.05873107 188.30967473 -124.4375 182.3125 C-124.49164063 181.18714844 -124.54578125 180.06179687 -124.6015625 178.90234375 C-124.67117188 178.06832031 -124.74078125 177.23429688 -124.8125 176.375 C-126.16232749 176.00463917 -127.51774628 175.65464576 -128.875 175.3125 C-129.62910156 175.11527344 -130.38320313 174.91804687 -131.16015625 174.71484375 C-136.46829183 174.03471445 -140.30171412 174.70157311 -144.5390625 177.96484375 C-145.84996611 179.06728563 -147.14900156 180.18395309 -148.4375 181.3125 C-149.8555429 182.51056949 -151.27482879 183.70716921 -152.6953125 184.90234375 C-153.74187012 185.79155518 -153.74187012 185.79155518 -154.80957031 186.69873047 C-157.57940646 189.01683078 -160.43232932 191.19512019 -163.3125 193.375 C-168.89875863 197.63547166 -174.35552016 202.03707793 -179.79418945 206.48388672 C-184.15487525 210.0442498 -188.55737247 213.54261755 -193 217 C-198.19928678 221.05084698 -203.25631278 225.24214252 -208.26367188 229.52734375 C-211.28277244 232.10453415 -214.34197588 234.59546935 -217.5 237 C-224.76098853 242.56586805 -231.43266344 248.82727301 -237.8125 255.375 C-246.3738587 251.57216392 -253.39822757 243.8995694 -260.24609375 237.65625 C-263.95465923 234.35974735 -267.80098766 231.24264531 -271.66015625 228.125 C-273.8125 226.375 -273.8125 226.375 -274.8125 225.375 C-276.31668739 225.28188111 -277.82521356 225.25753972 -279.33227539 225.26147461 C-280.29319595 225.26155014 -281.25411652 225.26162567 -282.24415588 225.26170349 C-283.81132607 225.26944542 -283.81132607 225.26944542 -285.41015625 225.27734375 C-286.47415146 225.2787587 -287.53814667 225.28017365 -288.63438416 225.28163147 C-292.04795083 225.28724936 -295.461453 225.29980489 -298.875 225.3125 C-301.18294176 225.31751269 -303.49088455 225.322076 -305.79882812 225.32617188 C-311.47007426 225.3372246 -317.14128253 225.35398013 -322.8125 225.375 C-321.86126356 226.49551789 -320.90849184 227.61473255 -319.95507812 228.73339844 C-319.42466919 229.35680115 -318.89426025 229.98020386 -318.34777832 230.62249756 C-312.48255567 237.31758136 -305.21529074 242.70651724 -298.20605469 248.14086914 C-294.07324116 251.35347717 -290.04278623 254.66306611 -286.0625 258.0625 C-278.18948679 264.78223979 -270.14346735 271.23149335 -261.8125 277.375 C-263.16010867 281.34800173 -264.85804363 283.79503377 -267.75 286.8125 C-271.42720101 290.77753304 -274.82553003 294.84885372 -278.125 299.125 C-281.95579786 304.07593399 -285.90267924 308.89214473 -290 313.625 C-298.32399479 323.17517188 -298.32399479 323.17517188 -305.8125 333.375 C-308.82283512 332.04213024 -310.68888334 330.63080686 -312.875 328.1875 C-320.41981413 320.5142635 -328.85542142 315.47552366 -339.8125 315.375 C-353.10454916 316.83190931 -361.02401117 326.36365644 -369.87768555 335.42456055 C-373.04135714 338.65723774 -376.22376324 341.78343579 -379.66015625 344.7265625 C-384.77425009 349.12666962 -389.45466998 353.94767175 -394.1875 358.75 C-395.9638414 360.55175401 -397.74237339 362.35135183 -399.5234375 364.1484375 C-400.68818604 365.33058838 -400.68818604 365.33058838 -401.87646484 366.53662109 C-403.8125 368.375 -403.8125 368.375 -405.8125 369.375 C-405.8125 370.035 -405.8125 370.695 -405.8125 371.375 C-406.64019897 371.71265381 -406.64019897 371.71265381 -407.48461914 372.05712891 C-410.52431265 373.7779748 -412.61136329 375.96846412 -415.05859375 378.4609375 C-415.55158463 378.95912994 -416.0445755 379.45732239 -416.55250549 379.97061157 C-418.12318619 381.55904367 -419.68701086 383.15400184 -421.25 384.75 C-422.8102451 386.33799888 -424.37197424 387.92446247 -425.93678284 389.50796509 C-427.36019765 390.94912634 -428.77874511 392.39509021 -430.19702148 393.84130859 C-432.8125 396.375 -432.8125 396.375 -435.64868164 398.58447266 C-436.71977173 399.47078369 -436.71977173 399.47078369 -437.8125 400.375 C-437.8125 401.035 -437.8125 401.695 -437.8125 402.375 C-438.62315918 402.69561401 -438.62315918 402.69561401 -439.45019531 403.02270508 C-442.66407021 404.86247906 -445.04602637 407.38239832 -447.609375 410.01171875 C-448.16183899 410.56938431 -448.71430298 411.12704987 -449.2835083 411.70161438 C-451.04800514 413.48387805 -452.80568795 415.27266335 -454.5625 417.0625 C-456.86635591 419.40315361 -459.17341435 421.74057927 -461.484375 424.07421875 C-462.044664 424.64009705 -462.604953 425.20597534 -463.18222046 425.78900146 C-466.58243866 429.20165803 -470.07952549 432.41977479 -473.75195312 435.53930664 C-478.61465432 439.87137421 -483.11392659 444.61609679 -487.6875 449.25 C-489.74451953 451.33360255 -491.80483984 453.41386023 -493.8671875 455.4921875 C-494.76937012 456.40597168 -495.67155273 457.31975586 -496.60107422 458.26123047 C-498.8125 460.375 -498.8125 460.375 -500.8125 461.375 C-500.8125 462.035 -500.8125 462.695 -500.8125 463.375 C-501.68974731 463.76655273 -501.68974731 463.76655273 -502.5847168 464.16601562 C-506.55111231 466.31851871 -509.46808919 469.69271501 -512.625 472.875 C-513.34405518 473.59969482 -514.06311035 474.32438965 -514.80395508 475.07104492 C-527.34912888 487.90513961 -535.61075179 502.79443738 -536.1875 521.125 C-535.61038175 540.1197181 -529.97843198 560.94178864 -515.8125 574.375 C-500.33880922 587.26974232 -481.78191954 593.04259245 -461.8125 591.375 C-450.03028678 589.7538601 -436.31403996 583.90294226 -427.8125 575.375 C-427.8125 574.715 -427.8125 574.055 -427.8125 573.375 C-427.26722656 573.16617188 -426.72195313 572.95734375 -426.16015625 572.7421875 C-422.93919239 570.8664182 -420.703445 568.2531024 -418.25 565.5 C-417.72623779 564.92209717 -417.20247559 564.34419434 -416.6628418 563.7487793 C-415.57542447 562.54887616 -414.4902356 561.34694988 -413.40722656 560.14306641 C-411.45231753 557.97566726 -409.4771508 555.82753027 -407.49975586 553.68066406 C-402.97217441 548.76312043 -398.48127536 543.81290063 -394.0234375 538.83203125 C-392.45622614 537.09037764 -390.87682277 535.35965985 -389.2890625 533.63671875 C-388.06316406 532.30060547 -388.06316406 532.30060547 -386.8125 530.9375 C-385.69875 529.73287109 -385.69875 529.73287109 -384.5625 528.50390625 C-382.62306595 526.40359439 -382.62306595 526.40359439 -381.8125 523.375 C-381.1525 523.375 -380.4925 523.375 -379.8125 523.375 C-378.3796282 521.75781689 -377.01625251 520.07876628 -375.6875 518.375 C-372.23452907 514.05325273 -368.66020134 510.10594237 -364.69921875 506.25390625 C-362.2586204 503.8234139 -360.03118798 501.24209765 -357.78515625 498.6328125 C-355.38048403 495.8805342 -352.9125459 493.18877089 -350.4375 490.5 C-344.34557865 483.87585574 -338.28300403 477.22688459 -332.375 470.4375 C-328.72071138 466.24057919 -324.96505027 462.1384724 -321.21484375 458.02734375 C-319.24308156 455.85039004 -317.29884663 453.65661326 -315.375 451.4375 C-311.94481424 447.48832633 -308.40246482 443.64477695 -304.85961914 439.79711914 C-301.74014714 436.40345493 -298.68561962 432.96389556 -295.671875 429.4765625 C-293.80645805 427.36817107 -291.89072094 425.3119817 -289.96704102 423.25683594 C-273.0318288 405.96388338 -273.0318288 405.96388338 -266.53125 383.64453125 C-267.48265041 375.96725846 -271.98207397 368.9426015 -275.8125 362.375 C-274.88308594 361.4571875 -273.95367187 360.539375 -272.99609375 359.59375 C-270.43682202 357.05663947 -267.88159485 354.51561864 -265.3359375 351.96484375 C-264.74474121 351.3730835 -264.15354492 350.78132324 -263.54443359 350.17163086 C-261.20563077 347.74546086 -259.02126951 345.20277566 -256.84765625 342.62890625 C-253.16831535 338.55408917 -249.20788853 334.74986669 -245.30566406 330.88989258 C-241.42125723 327.03223116 -237.67555287 323.13311425 -234.20703125 318.890625 C-232.57338488 317.11512138 -230.77512618 315.77027172 -228.8125 314.375 C-228.57660156 314.93058594 -228.34070313 315.48617188 -228.09765625 316.05859375 C-226.4997248 318.93875591 -224.507495 321.03869076 -222.25 323.4375 C-218.8171517 327.12863459 -215.53311908 330.87910259 -212.375 334.8125 C-208.71590714 339.34925888 -204.86525284 343.6363607 -200.89428711 347.89648438 C-197.92801018 351.09880319 -195.14789205 354.39224336 -192.4375 357.8125 C-180.14844435 373.31913544 -180.14844435 373.31913544 -162.51171875 380.6953125 C-153.36649455 381.16915831 -146.36041341 377.74477758 -139.48828125 371.94140625 C-134.14538718 366.81690785 -129.47365107 361.11598723 -124.8125 355.375 C-124.12542969 354.529375 -123.43835938 353.68375 -122.73046875 352.8125 C-121.48368833 351.25861787 -120.24287756 349.69992871 -119.0078125 348.13671875 C-116.11952814 344.50323647 -113.18295505 340.90994945 -110.25 337.3125 C-106.31232097 332.47520976 -102.40326044 327.62288548 -98.59375 322.68359375 C-91.14087965 313.02428153 -83.51533234 303.51201591 -75.80859375 294.0546875 C-71.23116236 288.43738466 -66.69485429 282.78884082 -62.234375 277.078125 C-56.99119716 270.36770901 -51.67428086 263.74631739 -46.19921875 257.22265625 C-43.19585211 253.63926135 -40.23233956 250.02495249 -37.28125 246.3984375 C-35.45791596 244.16543031 -33.62435484 241.9431144 -31.78125 239.7265625 C-15.32887557 219.85332371 -1.86662872 198.69123439 9.1875 175.375 C9.66799805 174.38209961 9.66799805 174.38209961 10.15820312 173.36914062 C27.3720947 137.60668198 35.15814015 98.01427222 39 58.75 C39.18598755 56.85773682 39.18598755 56.85773682 39.37573242 54.92724609 C40.7522283 39.74623108 41.91305782 26.02683186 32.1875 13.375 C22.1610777 3.51430369 10.02305095 3.11587038 -3.23706055 3.12841797 C-65.47219482 3.71794172 -128.14926313 22.93799584 -178.8125 59.375 Z M-91.8125 53.375 C-92.47556152 53.5920459 -93.13862305 53.8090918 -93.82177734 54.03271484 C-134.38946849 67.53452251 -169.81838856 93.64677008 -201.8125 121.375 C-202.54597656 122.00792969 -203.27945313 122.64085938 -204.03515625 123.29296875 C-208.52957394 127.19766166 -212.9458038 131.18839854 -217.36328125 135.1796875 C-219.55549214 137.1446357 -221.77097701 139.07709042 -224 141 C-227.12331961 143.71647437 -230.04061782 146.57772509 -232.93737793 149.53231812 C-234.74791892 151.31153619 -236.61595507 152.96651816 -238.54492188 154.61572266 C-242.73133812 158.25727041 -246.67748777 162.09513979 -250.59375 166.0234375 C-251.29270386 166.72143463 -251.99165771 167.41943176 -252.71179199 168.13858032 C-254.17171926 169.5978328 -255.63040748 171.05832588 -257.08789062 172.52001953 C-259.33088644 174.76843083 -261.57924786 177.01137911 -263.828125 179.25390625 C-265.25032126 180.6767623 -266.67220782 182.09992798 -268.09375 183.5234375 C-269.10604675 184.53269791 -269.10604675 184.53269791 -270.13879395 185.56234741 C-270.75363647 186.1803421 -271.368479 186.79833679 -272.00195312 187.43505859 C-272.54630005 187.98020111 -273.09064697 188.52534363 -273.65148926 189.08700562 C-274.92409051 190.2097898 -274.92409051 190.2097898 -274.8125 191.375 C-272.5025 192.035 -270.1925 192.695 -267.8125 193.375 C-267.76311851 197.75323917 -267.7267896 202.13133146 -267.70263672 206.50976562 C-267.69256957 207.9997032 -267.67891482 209.48962097 -267.66162109 210.97949219 C-267.63740347 213.11919028 -267.62602436 215.25862753 -267.6171875 217.3984375 C-267.60671387 218.68669434 -267.59624023 219.97495117 -267.58544922 221.30224609 C-267.8125 224.375 -267.8125 224.375 -269.8125 226.375 C-269.03648437 227.02984375 -268.26046875 227.6846875 -267.4609375 228.359375 C-266.94595703 228.79451416 -266.43097656 229.22965332 -265.90039062 229.67797852 C-264.74605089 230.65314551 -263.59108959 231.62757716 -262.43554688 232.60131836 C-259.26813241 235.27584435 -256.12202555 237.97066322 -253.0078125 240.70703125 C-252.38986816 241.24682617 -251.77192383 241.78662109 -251.13525391 242.34277344 C-249.94265848 243.38617463 -248.75462287 244.43481656 -247.57177734 245.48925781 C-244.47651745 248.18796873 -241.74600177 250.13477276 -237.8125 251.375 C-236.86503906 250.37533203 -236.86503906 250.37533203 -235.8984375 249.35546875 C-230.29696542 243.58449968 -224.54067052 238.40399209 -218.15893555 233.51147461 C-214.00458762 230.32607742 -209.9755877 227.0306424 -206 223.625 C-201.86963771 220.0951622 -197.68620981 216.67275136 -193.37109375 213.37109375 C-189.89041822 210.65563544 -186.48065212 207.85600095 -183.0625 205.0625 C-177.13420434 200.22504382 -171.13715851 195.50086161 -165.0546875 190.859375 C-161.44852174 188.10525211 -157.87890622 185.30532295 -154.3125 182.5 C-153.73677246 182.04737793 -153.16104492 181.59475586 -152.56787109 181.12841797 C-150.05403517 179.14940932 -147.55518981 177.16131424 -145.09375 175.1171875 C-140.95642462 171.95751778 -136.82089678 172.00496381 -131.8125 172.375 C-128.77717738 172.91534381 -125.79632701 173.60141522 -122.8125 174.375 C-121.45404339 185.46220145 -122.39192212 192.59716753 -129.19213867 201.62182617 C-130.21561152 202.92785983 -131.25115517 204.22452851 -132.29882812 205.51123047 C-133.72820564 207.27120917 -135.09858125 209.06099308 -136.453125 210.87890625 C-141.69032451 217.88293335 -147.2417898 224.63512839 -152.8125 231.375 C-154.31349484 233.20751892 -155.81349052 235.04085669 -157.3125 236.875 C-158.05757813 237.78507813 -158.80265625 238.69515625 -159.5703125 239.6328125 C-161.0465486 241.43824411 -162.52056736 243.24549141 -163.9921875 245.0546875 C-167.55384425 249.42754009 -171.14062874 253.77330695 -174.80151367 258.06323242 C-179.5842685 263.66824701 -184.20897712 269.36771219 -188.7331543 275.18334961 C-193.29145658 281.02827611 -198.03088182 286.71173855 -202.8125 292.375 C-198.90588479 297.85958135 -194.62869365 302.85098932 -190.08984375 307.8203125 C-187.27402451 310.97905312 -184.66963374 314.27554477 -182.05078125 317.59765625 C-177.9248575 322.71725797 -173.60112014 327.67027892 -169.30371094 332.64599609 C-166.79949894 335.54953724 -164.30617523 338.46240935 -161.8125 341.375 C-155.16919509 336.17589181 -150.0723954 329.91455399 -144.8125 323.375 C-144.13058594 322.53582031 -143.44867188 321.69664062 -142.74609375 320.83203125 C-139.13363252 316.35841764 -135.61529069 311.81941439 -132.125 307.25 C-127.76008668 301.53791222 -123.24897602 295.95465334 -118.70043945 290.38818359 C-115.1899244 286.0866318 -111.72872066 281.75173959 -108.3125 277.375 C-103.8306114 271.63480746 -99.25293222 265.97806483 -94.6484375 260.3359375 C-91.15719917 256.05048382 -87.71431112 251.73170547 -84.3125 247.375 C-80.37054715 242.32653407 -76.3620608 237.33753972 -72.3125 232.375 C-66.83193259 225.6544633 -61.43206153 218.87728223 -56.10791016 212.03222656 C-54.84566706 210.41743083 -53.57083648 208.81338264 -52.29296875 207.2109375 C-17.05230004 162.72227559 4.52629155 101.29198098 4.1875 44.375 C3.5166624 41.3206948 3.5166624 41.3206948 1.37939453 40.20629883 C-2.33892203 38.79608855 -6.00001438 39.03727611 -9.9375 39.0625 C-10.85619873 39.06741455 -11.77489746 39.0723291 -12.72143555 39.07739258 C-39.6317953 39.51567205 -66.33191798 44.90011926 -91.8125 53.375 Z " fill="#010301" transform="translate(538.8125,-0.37500000000000006)"/>
<path d="M0 0 C9.24 0 18.48 0 28 0 C28 33.33 28 66.66 28 101 C61.33 101 94.66 101 129 101 C129 109.91 129 118.82 129 128 C95.67 128 62.34 128 28 128 C28 161.33 28 194.66 28 229 C18.76 229 9.52 229 0 229 C0 195.67 0 162.34 0 128 C-33.33 128 -66.66 128 -101 128 C-101 118.76 -101 109.52 -101 100 C-67.67 100 -34.34 100 0 100 C0 67 0 34 0 0 Z " fill="#5EDD5E" transform="translate(140,94)"/>
<path d="M0 0 C1.56494141 1.47314453 1.56494141 1.47314453 3.2265625 3.5078125 C5.63785078 6.38490345 8.07218617 9.19872296 10.6484375 11.9296875 C11.25727783 12.57526611 11.86611816 13.22084473 12.4934082 13.88598633 C13.1143335 14.54236084 13.73525879 15.19873535 14.375 15.875 C29.94120141 32.41180212 29.94120141 32.41180212 33 37 C28.76960973 41.93049007 24.41727848 46.7374393 20 51.5 C16.21364279 55.58297357 12.48232858 59.69769824 8.83984375 63.91015625 C6.43329774 66.64370638 3.96693297 69.32110702 1.5 72 C-2.14419551 75.95857261 -5.73913842 79.95176903 -9.265625 84.015625 C-12.79500714 88.05374691 -16.40634226 92.01914681 -20 96 C-21.50028679 97.66640851 -23.00028872 99.33307353 -24.5 101 C-42.5 121 -42.5 121 -44.7578125 123.5078125 C-46.23292618 125.14739879 -47.70691652 126.78799655 -49.1796875 128.4296875 C-52.74138134 132.39698349 -56.31748722 136.34794124 -59.93774414 140.26196289 C-64.37781628 145.06790139 -68.70312975 149.94915823 -72.9375 154.9375 C-77.4527741 160.25676334 -82.09994327 165.42662199 -86.85571289 170.53149414 C-89.41017423 173.27420991 -91.93128289 176.03318361 -94.375 178.875 C-119.57248927 207.75992672 -119.57248927 207.75992672 -133.84375 209.30859375 C-142.98790643 209.68960027 -149.2399237 207.49435425 -156.25 201.6875 C-163.92600177 194.4845719 -167.9292771 186.73518081 -168.4375 176.0625 C-167.84922131 160.39958 -156.75566364 149.27608357 -146.23022461 138.94897461 C-144.56162009 137.31163658 -142.90402157 135.66377345 -141.24804688 134.01367188 C-136.93066213 129.72830455 -132.62009829 125.45688767 -127.98828125 121.5078125 C-121.60381405 116.04742387 -115.84258255 109.86507943 -109.96533203 103.86938477 C-108.36921101 102.24325081 -106.76707677 100.62324105 -105.1640625 99.00390625 C-104.6745108 98.50089493 -104.18495911 97.99788361 -103.68057251 97.47962952 C-102.49116463 96.28138007 -101.24975604 95.13516637 -100 94 C-99.34 94 -98.68 94 -98 94 C-98 93.34 -98 92.68 -98 92 C-96.68945312 90.71289062 -96.68945312 90.71289062 -94.78125 89.15625 C-91.02061253 85.95838399 -87.50553541 82.59452366 -84.03125 79.09375 C-83.50249268 78.56168945 -82.97373535 78.02962891 -82.42895508 77.48144531 C-80.78398793 75.82291193 -79.14156073 74.16190465 -77.5 72.5 C-65.3699172 60.21958865 -65.3699172 60.21958865 -59.09179688 54.86914062 C-54.17993079 50.48010623 -49.62650789 45.68648114 -45 41 C-39.1735854 35.0980578 -33.38478666 29.23994321 -27.06884766 23.85498047 C-24.44714804 21.50429913 -21.97794568 19.01497651 -19.51171875 16.50390625 C-19.03662872 16.02094086 -18.5615387 15.53797546 -18.072052 15.04037476 C-16.10502115 13.03680463 -14.14123352 11.03025358 -12.1862793 9.01489258 C-10.73890304 7.52538501 -9.28239748 6.04532928 -7.82421875 4.56640625 C-6.96916748 3.68927979 -6.11411621 2.81215332 -5.2331543 1.90844727 C-3 0 -3 0 0 0 Z M-3 5 C-3.74572266 5.75095947 -4.49144531 6.50191895 -5.25976562 7.27563477 C-8.06019739 10.0943374 -10.86407745 12.90958919 -13.66894531 15.72387695 C-14.87625065 16.93617248 -16.08265234 18.1493687 -17.28808594 19.36352539 C-23.02995082 25.14585947 -28.73391945 30.87972924 -34.94335938 36.16381836 C-39.84471308 40.53977767 -44.38511024 45.3252876 -49 50 C-60.57139385 61.7213934 -60.57139385 61.7213934 -64.90625 65.40625 C-71.12823246 70.71550362 -76.75364607 76.68818719 -82.5 82.5 C-95.75246337 95.90342716 -95.75246337 95.90342716 -101.94335938 101.16601562 C-106.84680225 105.53860144 -111.38560458 110.32578834 -116 115 C-127.78621584 126.93900012 -127.78621584 126.93900012 -134.01123047 132.26025391 C-138.18133477 135.90819931 -142.11339602 139.80386722 -146.0625 143.6875 C-146.92166016 144.50927734 -147.78082031 145.33105469 -148.66601562 146.17773438 C-156.36429478 153.77015484 -164.90901298 163.96195575 -165.0234375 175.328125 C-164.43155375 185.48360409 -160.27110527 193.01403611 -153 200 C-147.53126422 204.2410604 -142.22476342 206.54523905 -135.1953125 206.3046875 C-120.70938877 204.29418563 -110.12585276 191.86047025 -101.08203125 181.3671875 C-98.43953651 178.3627751 -95.7216141 175.43264387 -93 172.5 C-88.12602365 167.23896383 -83.34723328 161.91610112 -78.68701172 156.46386719 C-71.73831465 148.33746392 -64.65608147 140.3819038 -57.2890625 132.63085938 C-53.64823843 128.79442086 -50.11906005 124.8844028 -46.65185547 120.89038086 C-44.3145089 118.21552504 -41.91059656 115.60911627 -39.5 113 C-36.46031004 109.70047223 -33.43841941 106.39048393 -30.5 103 C-27.56155935 99.60949156 -24.53883698 96.30033018 -21.5 93 C-17.85832111 89.04410817 -14.265005 85.05438376 -10.7421875 80.9921875 C-7.92415576 77.76977453 -5.04448387 74.60305021 -2.17578125 71.42578125 C-0.32556437 69.36297212 1.49944809 67.2828763 3.3125 65.1875 C6.47077719 61.55805791 9.72972562 58.02809684 13 54.5 C18.09465723 48.99808757 18.09465723 48.99808757 23.125 43.4375 C23.64320313 42.85871094 24.16140625 42.27992188 24.6953125 41.68359375 C26.09126612 39.88222846 27.05032943 38.06666404 28 36 C27.57589844 35.5875 27.15179688 35.175 26.71484375 34.75 C23.67463573 31.75656441 20.71938053 28.7360651 17.9375 25.5 C14.28690704 21.28135138 10.53126733 17.16382098 6.75 13.0625 C6.13503662 12.38703125 5.52007324 11.7115625 4.88647461 11.015625 C4.30003174 10.38269531 3.71358887 9.74976563 3.109375 9.09765625 C2.58311523 8.52539307 2.05685547 7.95312988 1.51464844 7.36352539 C-0.06947357 5.75478676 -0.06947357 5.75478676 -3 5 Z " fill="#000000" transform="translate(203,350)"/>
</svg>
